<svg width="983" height="797" viewBox="0 0 983 797" fill="none" xmlns="http://www.w3.org/2000/svg">
<g opacity="0.2">
<path d="M580.781 706.933C479.445 760.894 357.749 776.683 250.321 743.643C142.894 710.603 52.1632 627.402 16.5348 521.275C-19.0936 415.148 3.85007 288.381 79.7846 202.1C148.796 123.686 306.099 157.267 405.218 125.859C515.373 90.9539 575.397 -11.1074 688.916 1.0673C802.435 13.242 915.114 74.0994 960.151 177.6C990.33 246.956 987.354 328.218 965.083 402.064C936.685 496.223 877.399 581.744 798.66 642.131C719.921 702.517 622.161 737.437 524.238 740.155" fill="url(#paint0_linear_3601_15043)"/>
</g>
<path d="M233.131 421.406C130.4 463.219 65.7266 396.972 51.2393 379.86L69.8668 343.377C67.5599 344.615 65.2373 345.136 63.6116 343.778C63.3195 343.541 63.3042 343.076 63.4955 342.444C63.8657 341.2 65.0507 339.31 66.5753 337.27C68.0642 335.267 69.8813 333.122 71.5678 331.284C72.4407 330.333 73.2732 329.458 74.0135 328.743C75.0951 327.697 76.5827 327.224 78.0331 327.392C78.749 327.47 79.4643 327.719 80.1091 328.12C82.7833 329.799 86.2157 332.305 87.1278 334.583C88.6826 338.461 90.1039 352.126 90.1039 352.126C148.322 400.565 214.678 358.501 233.511 344.581C233.423 345.557 233.334 346.534 233.254 347.522C231.431 369.14 230.797 394.492 233.131 421.406Z" fill="white" stroke="#2F2F2F" stroke-width="2.5" stroke-miterlimit="10" stroke-linecap="round" stroke-linejoin="round"/>
<path d="M63.2878 342.419C61.0988 341.949 58.1953 341.471 57.9881 341.436C60.9139 345.18 63.1398 348.718 62.3876 350.086C60.9734 352.663 57.0929 350.787 55.2698 349.717C57.2137 352.021 58.4119 354.243 57.7533 355.835C56.9811 357.694 50.8499 355.522 47.7089 354.27L41.3899 366.935C34.824 355.742 31.9979 342.48 31.833 340.948C31.6139 338.956 37.572 335.476 37.572 335.476C37.572 335.476 38.1777 332.427 38.8485 330.736C39.5094 329.044 45.5901 326.536 45.5901 326.536C45.5901 326.536 44.7774 324.703 46.0454 322.824C47.3137 320.944 50.2049 320.866 50.2049 320.866C50.2049 320.866 51.6829 317.36 52.7078 315.984C53.733 314.609 60.043 316.884 60.043 316.884C60.043 316.884 61.7259 318.934 63.9501 321.746C66.1928 324.57 68.9857 328.167 71.1783 331.236C69.5315 333.079 67.7565 335.229 66.3013 337.237C64.8113 339.281 63.6521 341.174 63.2878 342.419Z" fill="white" stroke="#2F2F2F" stroke-width="2.5" stroke-miterlimit="10" stroke-linecap="round" stroke-linejoin="round"/>
<path d="M267.284 284.993C253.783 284.993 243.304 281.851 240.114 280.776C244.292 260.288 231.406 230.716 227.012 221.464C230.222 221.25 233.412 220.313 236.315 218.721C245.253 213.722 249.553 203.517 247.222 193.905C250.145 195.457 253.438 196.289 256.78 196.289C260.19 196.289 263.572 195.412 266.559 193.753C272.166 190.639 275.862 185.09 276.736 178.969C280.983 185.711 288.406 189.845 296.399 189.845C300.205 189.845 303.987 188.885 307.359 187.067C313.631 204.366 324.004 223.995 337.442 243.986C316.214 277.856 287.607 284.993 267.284 284.993Z" fill="white"/>
<path d="M277.364 181.994C281.97 187.689 288.95 191.095 296.4 191.095C299.935 191.095 303.45 190.31 306.668 188.812C312.944 205.683 323.015 224.672 335.951 244.006C315.071 276.805 287.153 283.744 267.284 283.744C255.172 283.744 245.53 281.179 241.545 279.927C244.95 260.207 233.774 233.111 228.886 222.52C231.665 222.114 234.398 221.197 236.934 219.807C245.611 214.955 250.145 205.442 248.893 196.046C251.391 197.024 254.07 197.539 256.78 197.539C260.402 197.539 263.993 196.608 267.165 194.845C272.236 192.03 275.834 187.339 277.364 181.994ZM275.452 173.232C276.668 180.831 273.069 188.709 265.952 192.66C263.046 194.274 259.892 195.039 256.78 195.039C252.495 195.039 248.289 193.589 244.917 190.909C249.078 200.717 245.262 212.285 235.714 217.625C232.504 219.384 229.029 220.261 225.599 220.261C225.412 220.261 225.224 220.258 225.038 220.253C228.254 226.771 243.788 260.044 238.654 281.585C238.654 281.585 250.624 286.244 267.283 286.244C288.575 286.244 317.528 278.632 338.931 243.959C325.364 223.871 314.405 203.35 308.016 185.193C307.745 185.441 307.386 185.649 307.047 185.813C303.664 187.701 300.006 188.595 296.399 188.595C288.695 188.595 281.228 184.513 277.204 177.311C276.497 176.01 275.872 174.641 275.452 173.232Z" fill="#2F2F2F"/>
<path d="M69.4829 343.33C73.5003 341.133 77.4704 336.693 77.4704 336.693" stroke="#2F2F2F" stroke-width="2.5" stroke-miterlimit="10" stroke-linecap="round" stroke-linejoin="round"/>
<path d="M41.3901 366.935C43.329 370.266 45.6035 373.406 48.2366 376.006C48.2366 376.006 49.2495 377.44 51.2397 379.86" stroke="#2F2F2F" stroke-width="2.5" stroke-miterlimit="10" stroke-linecap="round" stroke-linejoin="round"/>
<path d="M268.619 229.642C268.619 229.642 289.063 243.929 289.411 219.66" stroke="#2F2F2F" stroke-width="2.5" stroke-miterlimit="10" stroke-linecap="round" stroke-linejoin="round"/>
<path d="M495.346 467.557C495.346 467.557 432.955 484.123 377.323 533.789C330.4 575.708 278.451 569.406 278.143 569.368C246.302 524.396 232.815 472.629 228.455 425.296C228.318 423.788 228.181 422.28 228.062 420.784C225.881 393.889 226.582 368.545 228.427 346.93C228.508 345.942 228.598 344.966 228.687 343.989C231.558 312.787 236.711 289.753 238.659 281.589C238.66 281.579 238.66 281.579 238.662 281.569C238.662 281.569 267.036 292.627 297.224 280.693C297.287 280.671 297.351 280.638 297.425 280.617C297.446 280.609 297.457 280.601 297.478 280.594C298.146 280.323 298.814 280.052 299.484 279.762C300.165 279.472 300.837 279.162 301.51 278.852C301.532 278.834 301.553 278.827 301.574 278.819C302.302 278.475 303.03 278.121 303.75 277.756C304.061 277.603 304.362 277.449 304.663 277.294C305.019 277.106 305.366 276.907 305.721 276.719C306.197 276.455 306.662 276.189 307.128 275.924C307.421 275.758 307.713 275.593 307.996 275.416C308.29 275.24 308.584 275.065 308.877 274.889C309.171 274.714 309.455 274.537 309.749 274.351C310.044 274.166 310.329 273.979 310.624 273.794C311.203 273.422 311.784 273.039 312.356 272.646C312.939 272.244 313.513 271.841 314.087 271.428C314.099 271.419 314.099 271.419 314.099 271.419C315.027 270.747 315.949 270.054 316.865 269.32C317.434 268.866 318.005 268.402 318.577 267.928C319.07 267.526 319.555 267.101 320.04 266.677C320.197 266.546 320.345 266.412 320.492 266.279C320.989 265.837 321.487 265.394 321.977 264.93C322.534 264.414 323.083 263.887 323.643 263.341C323.643 263.341 323.644 263.331 323.655 263.323C324.194 262.794 324.735 262.246 325.277 261.688C325.321 261.653 325.357 261.607 325.393 261.561C325.923 261.022 326.455 260.462 326.968 259.891C327.467 259.357 327.958 258.803 328.439 258.247C329.047 257.566 329.637 256.863 330.228 256.15C331.09 255.117 331.936 254.052 332.777 252.946C333.197 252.393 333.619 251.83 334.032 251.256C334.453 250.693 334.868 250.11 335.273 249.514C335.662 248.978 336.042 248.42 336.413 247.861C337.262 246.605 338.098 245.297 338.927 243.958L338.938 243.95C348.045 257.428 358.465 271.038 369.81 284.339C371.368 286.172 372.948 287.998 374.538 289.815C386.425 303.464 399.232 316.672 412.533 329.134C415.687 332.09 418.748 335.145 421.715 338.31C432.834 350.081 442.643 363.093 451.221 376.195C480.798 421.392 495.346 467.557 495.346 467.557Z" fill="url(#paint1_linear_3601_15043)"/>
<path d="M307.783 346.712C308.717 347.821 309.997 348.685 311.43 348.909C312.862 349.134 314.438 348.643 315.332 347.502C316.216 346.372 316.326 344.771 315.887 343.406C315.068 340.862 311.695 336.965 308.7 338.545C305.639 340.16 305.827 344.386 307.783 346.712Z" fill="white" stroke="#2F2F2F" stroke-width="2.5" stroke-miterlimit="10" stroke-linecap="round" stroke-linejoin="round"/>
<path d="M327.299 383.948C328.232 385.057 329.512 385.921 330.945 386.145C332.377 386.369 333.953 385.879 334.847 384.737C335.731 383.608 335.842 382.007 335.402 380.642C334.583 378.098 331.21 374.201 328.215 375.781C325.154 377.396 325.342 381.622 327.299 383.948Z" fill="white" stroke="#2F2F2F" stroke-width="2.5" stroke-miterlimit="10" stroke-linecap="round" stroke-linejoin="round"/>
<path d="M343.84 422.838C344.773 423.948 346.053 424.812 347.486 425.036C348.918 425.26 350.494 424.77 351.388 423.628C352.272 422.499 352.383 420.898 351.943 419.532C351.124 416.989 347.751 413.092 344.756 414.672C341.695 416.286 341.883 420.512 343.84 422.838Z" fill="white" stroke="#2F2F2F" stroke-width="2.5" stroke-miterlimit="10" stroke-linecap="round" stroke-linejoin="round"/>
<path d="M359.55 466.4C360.483 467.51 361.763 468.373 363.196 468.598C364.628 468.822 366.204 468.331 367.098 467.19C367.982 466.06 368.093 464.459 367.653 463.094C366.834 460.551 363.461 456.654 360.466 458.233C357.405 459.848 357.593 464.074 359.55 466.4Z" fill="white" stroke="#2F2F2F" stroke-width="2.5" stroke-miterlimit="10" stroke-linecap="round" stroke-linejoin="round"/>
<path d="M311.357 318.082C347.891 366.294 373.478 422.752 385.648 482.006" stroke="#2F2F2F" stroke-width="2.5" stroke-miterlimit="10" stroke-linecap="round" stroke-linejoin="round"/>
<path d="M225.724 219.01C223.965 216.185 216.2 202.553 220.185 187.978C223.251 176.767 232.454 167.541 247.539 160.554C255.911 156.67 263.733 154.7 270.788 154.7C295.82 154.7 304.985 179.703 306.554 184.662C306.538 184.67 306.52 184.679 306.503 184.688C303.362 186.438 299.891 187.345 296.399 187.345C288.9 187.345 281.963 183.267 278.296 176.702C277.547 175.326 277.006 174.07 276.65 172.875C276.489 172.335 275.994 171.982 275.453 171.982C275.36 171.982 275.267 171.992 275.174 172.013C274.532 172.16 274.113 172.779 274.217 173.43C275.379 180.687 271.814 187.976 265.345 191.567C262.729 193.021 259.767 193.789 256.78 193.789C252.762 193.789 248.825 192.418 245.695 189.93C245.467 189.749 245.192 189.659 244.917 189.659C244.65 189.659 244.384 189.744 244.16 189.914C243.705 190.26 243.543 190.87 243.766 191.397C247.733 200.747 244.009 211.554 235.104 216.534C232.189 218.132 228.945 218.989 225.724 219.01Z" fill="#2F2F2F"/>
<path d="M270.79 155.95C281.902 155.95 291.106 160.897 298.145 170.653C301.974 175.961 304.114 181.347 305.039 184.047C302.352 185.389 299.383 186.095 296.399 186.095C289.352 186.095 282.833 182.262 279.4 176.117C278.686 174.804 278.178 173.627 277.847 172.517C277.526 171.439 276.536 170.732 275.453 170.732C275.269 170.732 275.082 170.752 274.895 170.795C273.612 171.088 272.775 172.327 272.983 173.627C274.062 180.367 270.748 187.137 264.737 190.474C262.306 191.825 259.554 192.539 256.779 192.539C253.043 192.539 249.382 191.265 246.472 188.952C246.017 188.59 245.467 188.409 244.916 188.409C244.383 188.409 243.85 188.579 243.403 188.919C242.492 189.612 242.168 190.833 242.615 191.885C246.332 200.647 242.841 210.775 234.512 215.432C231.979 216.821 229.195 217.613 226.412 217.742C224.227 214.066 217.763 201.615 221.385 188.328C224.343 177.481 233.319 168.517 248.066 161.687C256.27 157.881 263.914 155.951 270.788 155.951C270.789 155.95 270.79 155.95 270.79 155.95ZM270.788 153.45C264.04 153.451 256.166 155.173 247.014 159.419C198.52 181.879 225.037 220.253 225.037 220.253C225.225 220.258 225.411 220.261 225.599 220.261C229.028 220.261 232.505 219.384 235.714 217.625C245.262 212.285 249.078 200.717 244.916 190.909C248.289 193.589 252.495 195.039 256.78 195.039C259.892 195.039 263.046 194.273 265.951 192.66C273.069 188.708 276.668 180.831 275.452 173.232C275.872 174.641 276.496 176.01 277.204 177.312C281.228 184.514 288.695 188.595 296.399 188.595C300.006 188.595 303.665 187.7 307.047 185.813C307.386 185.649 307.745 185.441 308.016 185.194C308.016 185.193 299.761 153.449 270.788 153.45Z" fill="#2F2F2F"/>
<path d="M240.686 162.717C231.664 162.717 223.468 157.041 220.292 148.593C218.245 143.147 218.441 137.229 220.844 131.93C223.247 126.631 227.571 122.585 233.017 120.538C235.487 119.609 238.065 119.138 240.678 119.138C249.7 119.138 257.896 124.814 261.072 133.262C263.119 138.709 262.924 144.626 260.52 149.925C258.117 155.224 253.794 159.27 248.347 161.317C245.877 162.246 243.3 162.717 240.686 162.717Z" fill="#2F2F2F"/>
<path d="M240.68 117.889V120.389C249.183 120.389 256.908 125.739 259.902 133.702C261.832 138.836 261.647 144.414 259.382 149.409C257.116 154.404 253.041 158.217 247.908 160.147C245.579 161.023 243.149 161.467 240.685 161.467C232.181 161.467 224.456 156.117 221.462 148.153C217.478 137.556 222.859 125.692 233.456 121.708C235.785 120.832 238.215 120.389 240.679 120.389L240.68 117.889ZM240.679 117.889C237.986 117.889 235.246 118.365 232.576 119.368C220.669 123.845 214.646 137.126 219.122 149.033C222.595 158.271 231.366 163.967 240.685 163.967C243.378 163.967 246.118 163.491 248.787 162.487C260.694 158.011 266.718 144.729 262.242 132.822C258.769 123.584 249.998 117.888 240.679 117.889Z" fill="#2F2F2F"/>
<path d="M221.168 129.165C216.645 131.582 213.966 136.752 213.816 141.878C213.667 147.004 215.792 152.016 218.956 156.052C222.217 160.213 226.784 163.558 232.001 164.416C237.218 165.274 243.044 163.264 245.886 158.806" stroke="#2F2F2F" stroke-width="2.5" stroke-miterlimit="10" stroke-linecap="round" stroke-linejoin="round"/>
<path d="M239.776 120.487C244.541 120.007 249.412 119.862 254.063 121.005C258.714 122.148 263.164 124.703 265.795 128.705C268.033 132.109 268.806 136.44 267.886 140.408C266.965 144.375 264.363 147.924 260.856 149.994" stroke="#2F2F2F" stroke-width="2.5" stroke-miterlimit="10" stroke-linecap="round" stroke-linejoin="round"/>
<path d="M237.044 237.784C233.023 236.418 224.807 236.304 221.392 238.827C217.977 241.35 216.034 245.829 216.791 250.007C217.547 254.184 221.106 257.776 225.317 258.317C228.282 258.699 231.298 257.647 233.759 255.951C236.221 254.255 238.196 251.951 240.025 249.587" fill="white"/>
<path d="M237.044 237.784C233.023 236.418 224.807 236.304 221.392 238.827C217.977 241.35 216.034 245.829 216.791 250.007C217.547 254.184 221.106 257.776 225.317 258.317C228.282 258.699 231.298 257.647 233.759 255.951C236.221 254.255 238.196 251.951 240.025 249.587" stroke="#2F2F2F" stroke-width="2.5" stroke-miterlimit="10" stroke-linecap="round" stroke-linejoin="round"/>
<path d="M311.485 204.696C311.377 199.751 315.258 195.021 320.129 194.163C325.001 193.305 330.265 196.423 331.853 201.108C333.274 205.3 331.869 210.036 329.278 213.626C326.688 217.215 323.044 219.88 319.463 222.482" fill="white"/>
<path d="M311.485 204.696C311.377 199.751 315.258 195.021 320.129 194.163C325.001 193.305 330.265 196.423 331.853 201.108C333.274 205.3 331.869 210.036 329.278 213.626C326.688 217.215 323.044 219.88 319.463 222.482" stroke="#2F2F2F" stroke-width="2.5" stroke-miterlimit="10" stroke-linecap="round" stroke-linejoin="round"/>
<path d="M223.703 286.413C223.642 286.413 223.582 286.412 223.522 286.41C221.448 286.344 219.415 285.028 218.218 282.976C217.223 281.273 216.89 279.328 216.696 277.651C216.019 271.813 216.565 265.688 218.274 259.938C218.542 259.036 219.49 258.519 220.395 258.789C221.298 259.057 221.813 260.007 221.544 260.91C219.966 266.222 219.461 271.875 220.085 277.258C220.246 278.651 220.489 280.1 221.164 281.256C221.766 282.287 222.734 282.971 223.631 283C225.574 283.06 227.057 280.406 227.775 278.818C232.142 269.148 233.771 258.61 232.245 249.906C231.872 247.781 230.431 247.187 229.216 247.342C228.278 247.459 227.428 246.797 227.31 245.862C227.192 244.927 227.855 244.074 228.789 243.956C232.176 243.532 234.978 245.734 235.606 249.316C237.247 258.678 235.527 269.943 230.884 280.222C228.589 285.303 225.747 286.413 223.703 286.413Z" fill="url(#paint2_linear_3601_15043)"/>
<path d="M348.455 236.129C347.022 236.129 345.254 235.753 343.08 234.763C332.816 230.088 324.1 222.747 319.167 214.623C317.28 211.514 317.937 208.009 320.765 206.1C321.545 205.573 322.605 205.778 323.133 206.559C323.66 207.34 323.455 208.4 322.674 208.927C321.655 209.616 320.964 211.008 322.084 212.852C326.67 220.406 334.838 227.26 344.494 231.658C346.081 232.381 348.954 233.396 350.367 232.075C351.023 231.463 351.3 230.309 351.074 229.138C350.82 227.824 350.048 226.574 349.252 225.419C346.174 220.958 342.07 217.037 337.384 214.082C336.587 213.579 336.349 212.526 336.852 211.729C337.354 210.931 338.407 210.694 339.205 211.196C344.277 214.395 348.723 218.643 352.061 223.482C353.02 224.873 354.05 226.555 354.424 228.49C354.874 230.823 354.212 233.152 352.696 234.569C351.818 235.388 350.468 236.128 348.455 236.129Z" fill="url(#paint3_linear_3601_15043)"/>
<path d="M54.2882 349.093C50.2224 345.36 43.1211 339.27 43.1211 339.27" stroke="#2F2F2F" stroke-width="2.5" stroke-miterlimit="10" stroke-linecap="round" stroke-linejoin="round"/>
<path d="M47.7091 354.27C46.6042 353.832 45.8691 353.5 45.8691 353.5" stroke="#2F2F2F" stroke-width="2.5" stroke-miterlimit="10" stroke-linecap="round" stroke-linejoin="round"/>
<path d="M57.9883 341.436C54.0992 336.838 47.6157 329.736 47.6157 329.736" stroke="#2F2F2F" stroke-width="2.5" stroke-miterlimit="10" stroke-linecap="round" stroke-linejoin="round"/>
<path d="M55.26 349.716C54.6688 349.361 54.2886 349.093 54.2886 349.093" stroke="#2F2F2F" stroke-width="2.5" stroke-miterlimit="10" stroke-linecap="round" stroke-linejoin="round"/>
<path d="M54.6313 323.877C54.6313 323.877 57.0956 326.456 59.9831 329.692L66.3014 337.237" stroke="#2F2F2F" stroke-width="2.5" stroke-miterlimit="10" stroke-linecap="round" stroke-linejoin="round"/>
<path d="M98.932 252.661C98.5026 252.446 98.0594 252.236 97.6167 252.026L97.6256 252.008L98.932 252.661Z" stroke="#2F2F2F" stroke-width="2.5" stroke-miterlimit="10" stroke-linecap="round" stroke-linejoin="round"/>
<path d="M132.326 254.503L125.669 266.872C121.821 261.977 115.67 260.259 113.662 259.804L120.86 247.18C121.455 247.935 125.738 253.147 132.326 254.503Z" fill="white" stroke="#2F2F2F" stroke-width="2.5" stroke-miterlimit="10" stroke-linecap="round" stroke-linejoin="round"/>
<path d="M142.386 257.481L133.504 273.992C133.008 274.896 131.872 275.245 130.964 274.758L125.225 271.658C124.317 271.171 123.967 270.035 124.459 269.118L125.544 267.1L125.67 266.873L132.326 254.504L133.35 252.611C133.836 251.703 134.977 251.367 135.885 251.854L141.628 254.946C142.537 255.433 142.873 256.573 142.386 257.481Z" fill="white" stroke="#2F2F2F" stroke-width="2.5" stroke-miterlimit="10" stroke-linecap="round" stroke-linejoin="round"/>
<path d="M122.379 244.517L120.86 247.18L113.662 259.804L113.551 260.005L112.259 262.277C112.259 262.277 111.807 261.772 110.917 260.959L111.02 260.753C108.854 258.8 104.944 255.663 99.6208 253.005L97.6255 252.009L97.6166 252.026C88.232 247.675 74.9035 245.089 59.313 252.36C59.3129 252.36 81.8784 208.556 122.379 244.517Z" fill="white" stroke="#2F2F2F" stroke-width="2.5" stroke-miterlimit="10" stroke-linecap="round" stroke-linejoin="round"/>
<path d="M111.02 260.753L110.917 260.959C110.738 260.78 110.546 260.606 110.331 260.409C108.219 258.505 104.456 255.475 99.3433 252.866L99.6207 253.005C104.944 255.663 108.854 258.8 111.02 260.753Z" stroke="#2F2F2F" stroke-width="2.5" stroke-miterlimit="10" stroke-linecap="round" stroke-linejoin="round"/>
<path d="M110.917 260.959L107.379 268.044L93.8516 261.29L98.3055 252.37C98.6141 252.513 98.9048 252.647 99.2002 252.794L99.3435 252.866C104.456 255.475 108.219 258.505 110.331 260.409C110.546 260.606 110.738 260.78 110.917 260.959Z" fill="white" stroke="#2F2F2F" stroke-width="2.5" stroke-miterlimit="10" stroke-linecap="round" stroke-linejoin="round"/>
<path d="M111.02 260.753L110.917 260.959C110.738 260.78 110.546 260.606 110.331 260.409C108.219 258.505 104.456 255.475 99.3433 252.866L99.6207 253.005C104.944 255.663 108.854 258.8 111.02 260.753Z" stroke="#2F2F2F" stroke-width="2.5" stroke-miterlimit="10" stroke-linecap="round" stroke-linejoin="round"/>
<path d="M98.932 252.661C98.5026 252.446 98.0594 252.236 97.6167 252.026L97.6256 252.008L98.932 252.661Z" stroke="#2F2F2F" stroke-width="2.5" stroke-miterlimit="10" stroke-linecap="round" stroke-linejoin="round"/>
<path d="M97.5186 263.096L73.5977 311.007L79.7978 314.103L103.719 266.191L97.5186 263.096Z" fill="white" stroke="#2F2F2F" stroke-width="2.5" stroke-miterlimit="10" stroke-linecap="round" stroke-linejoin="round"/>
<path d="M69.4831 343.33L51.2393 379.86L49.0747 384.199C48.1132 386.126 45.7793 386.918 43.8421 385.955L37.7675 382.913C35.849 381.962 35.0598 379.609 36.0214 377.681L41.3898 366.935L47.7088 354.27C50.8498 355.522 56.981 357.694 57.7532 355.834C58.4118 354.243 57.2136 352.021 55.2697 349.716C57.0929 350.787 60.9734 352.663 62.3875 350.086C63.1398 348.718 60.9138 345.18 57.988 341.436C58.1952 341.471 61.0986 341.949 63.2877 342.419C63.0995 343.05 63.1128 343.515 63.3962 343.752C64.9733 345.104 67.2346 344.576 69.4831 343.33Z" fill="#46CD81" stroke="#2F2F2F" stroke-width="2.5" stroke-miterlimit="10" stroke-linecap="round" stroke-linejoin="round"/>
<path d="M81.4758 319.321L77.4814 327.325C76.0709 327.162 74.622 327.639 73.5663 328.688C72.8437 329.405 72.0309 330.283 71.1785 331.236C68.9859 328.167 66.1929 324.569 63.9502 321.745L68.4223 312.804C69.3717 310.895 71.6732 310.119 73.5867 311.029L79.7856 314.127C81.6794 315.115 82.4251 317.413 81.4758 319.321Z" fill="#46CD81" stroke="#2F2F2F" stroke-width="2.5" stroke-miterlimit="10" stroke-linecap="round" stroke-linejoin="round"/>
<path d="M165.339 794.5H92.8291V681.975L165.339 653.555" fill="white"/>
<path d="M165.339 794.5H92.8291V681.975L165.339 653.555" stroke="#2F2F2F" stroke-width="2.5" stroke-miterlimit="10" stroke-linecap="round" stroke-linejoin="round"/>
<path d="M198.249 662.405V794.965H165.339V653.555L198.249 662.405Z" fill="white" stroke="#2F2F2F" stroke-width="2.5" stroke-miterlimit="10" stroke-linecap="round" stroke-linejoin="round"/>
<path d="M184.58 748.212C222.56 748.212 253.348 717.423 253.348 679.443C253.348 641.463 222.56 610.674 184.58 610.674C146.6 610.674 115.811 641.463 115.811 679.443C115.811 717.423 146.6 748.212 184.58 748.212Z" fill="#46CD81" stroke="#2F2F2F" stroke-width="2.5" stroke-miterlimit="10" stroke-linecap="round" stroke-linejoin="round"/>
<path d="M184.58 679.443V794.965" stroke="#2F2F2F" stroke-width="2.5" stroke-miterlimit="10" stroke-linecap="round" stroke-linejoin="round"/>
<path d="M802.275 326.011C912.833 334.894 954.516 252.227 963.168 231.543L934.405 202.376C936.978 202.861 939.35 202.657 940.49 200.872C940.697 200.558 940.571 200.109 940.198 199.565C939.47 198.49 937.77 197.046 935.702 195.561C933.678 194.1 931.298 192.603 929.136 191.359C928.017 190.715 926.959 190.132 926.038 189.674C924.691 189.003 923.13 189.001 921.798 189.598C921.139 189.888 920.532 190.341 920.038 190.918C917.995 193.325 915.478 196.75 915.296 199.197C914.983 203.364 917.749 216.821 917.749 216.821C876.85 280.562 800.897 260.47 778.743 252.877C779.122 253.781 779.501 254.686 779.875 255.603C788.133 275.666 796.383 299.646 802.275 326.011Z" fill="white" stroke="#2F2F2F" stroke-width="2.5" stroke-miterlimit="10" stroke-linecap="round" stroke-linejoin="round"/>
<path d="M940.389 199.478C942.334 198.37 944.958 197.039 945.145 196.943C943.485 201.395 942.43 205.439 943.559 206.517C945.685 208.548 948.819 205.588 950.234 204.018C949.076 206.801 948.604 209.281 949.712 210.6C951.009 212.14 956.199 208.22 958.817 206.079L968.661 216.249C971.546 203.597 970.24 190.099 969.935 188.589C969.544 186.624 962.813 185.103 962.813 185.103C962.813 185.103 961.316 182.378 960.167 180.969C959.026 179.555 952.472 178.997 952.472 178.997C952.472 178.997 952.695 177.005 950.919 175.595C949.143 174.186 946.362 174.983 946.362 174.983C946.362 174.983 943.896 172.086 942.504 171.083C941.111 170.081 935.781 174.153 935.781 174.153C935.781 174.153 934.795 176.615 933.523 179.967C932.236 183.336 930.658 187.608 929.493 191.196C931.619 192.456 933.96 193.971 935.953 195.446C937.99 196.946 939.666 198.401 940.389 199.478Z" fill="white" stroke="#2F2F2F" stroke-width="2.5" stroke-miterlimit="10" stroke-linecap="round" stroke-linejoin="round"/>
<path d="M934.757 202.215C930.264 201.332 925.14 198.296 925.14 198.296" stroke="#2F2F2F" stroke-width="2.5" stroke-miterlimit="10" stroke-linecap="round" stroke-linejoin="round"/>
<path d="M968.661 216.249C967.817 220.009 966.595 223.689 964.869 226.962C964.869 226.962 964.336 228.635 963.168 231.543" stroke="#2F2F2F" stroke-width="2.5" stroke-miterlimit="10" stroke-linecap="round" stroke-linejoin="round"/>
<path d="M547.56 377.511C547.56 377.511 611.412 386.999 672.246 430.137C723.56 466.548 774.479 454.479 774.781 454.407C801.396 406.158 809.013 353.208 808.054 305.684C808.022 304.17 807.99 302.656 807.941 301.156C807.103 274.186 803.573 249.079 799.323 227.805C799.132 226.833 798.934 225.873 798.736 224.913C792.396 194.226 784.701 171.912 781.852 164.018C781.85 164.008 781.85 164.008 781.848 163.999C781.848 163.999 754.886 178.158 723.554 169.674C723.489 169.658 723.421 169.633 723.346 169.62C723.324 169.615 723.312 169.608 723.291 169.603C722.597 169.408 721.903 169.214 721.204 169C720.496 168.789 719.793 168.556 719.089 168.322C719.065 168.307 719.044 168.303 719.022 168.297C718.26 168.037 717.497 167.766 716.741 167.484C716.415 167.367 716.098 167.247 715.782 167.127C715.407 166.98 715.041 166.821 714.666 166.673C714.164 166.464 713.672 166.253 713.179 166.041C712.87 165.909 712.561 165.777 712.259 165.633C711.948 165.491 711.637 165.35 711.325 165.208C711.014 165.066 710.712 164.922 710.399 164.771C710.085 164.62 709.781 164.466 709.467 164.315C708.85 164.01 708.23 163.695 707.617 163.368C706.993 163.034 706.378 162.697 705.761 162.351C705.749 162.343 705.749 162.343 705.749 162.343C704.751 161.78 703.758 161.194 702.766 160.567C702.149 160.179 701.53 159.782 700.908 159.375C700.374 159.03 699.844 158.663 699.315 158.296C699.143 158.182 698.982 158.066 698.821 157.95C698.277 157.566 697.733 157.182 697.194 156.776C696.583 156.325 695.979 155.863 695.361 155.383C695.361 155.383 695.359 155.373 695.347 155.366C694.753 154.901 694.154 154.417 693.553 153.922C693.505 153.893 693.464 153.851 693.424 153.81C692.837 153.333 692.246 152.836 691.671 152.325C691.116 151.851 690.566 151.355 690.026 150.857C689.346 150.248 688.681 149.615 688.014 148.972C687.042 148.042 686.082 147.079 685.123 146.074C684.643 145.571 684.161 145.059 683.687 144.535C683.205 144.023 682.728 143.489 682.259 142.943C681.813 142.453 681.372 141.941 680.941 141.427C679.957 140.274 678.98 139.067 678.007 137.829L677.995 137.822C670.452 152.234 661.618 166.924 651.831 181.409C650.487 183.405 649.122 185.396 647.744 187.379C637.457 202.271 626.207 216.828 614.382 230.699C611.578 233.989 608.878 237.367 606.284 240.844C596.55 253.784 588.257 267.81 581.196 281.789C556.856 330.009 547.56 377.511 547.56 377.511Z" fill="url(#paint4_linear_3601_15043)"/>
<path d="M720.44 236.459C719.637 237.666 718.461 238.667 717.063 239.05C715.664 239.433 714.044 239.122 713.028 238.087C712.023 237.064 711.734 235.485 712.018 234.079C712.548 231.46 715.464 227.21 718.617 228.446C721.839 229.708 722.125 233.929 720.44 236.459Z" fill="white" stroke="#2F2F2F" stroke-width="2.5" stroke-miterlimit="10" stroke-linecap="round" stroke-linejoin="round"/>
<path d="M705.209 275.642C704.406 276.849 703.23 277.851 701.832 278.234C700.433 278.617 698.813 278.306 697.797 277.271C696.792 276.248 696.503 274.669 696.787 273.263C697.317 270.644 700.233 266.394 703.386 267.629C706.608 268.892 706.894 273.112 705.209 275.642Z" fill="white" stroke="#2F2F2F" stroke-width="2.5" stroke-miterlimit="10" stroke-linecap="round" stroke-linejoin="round"/>
<path d="M693.119 316.138C692.315 317.345 691.139 318.347 689.741 318.73C688.342 319.113 686.722 318.802 685.706 317.767C684.701 316.744 684.412 315.165 684.696 313.759C685.226 311.14 688.142 306.89 691.295 308.125C694.517 309.388 694.803 313.608 693.119 316.138Z" fill="white" stroke="#2F2F2F" stroke-width="2.5" stroke-miterlimit="10" stroke-linecap="round" stroke-linejoin="round"/>
<path d="M682.376 361.183C681.573 362.39 680.397 363.391 678.999 363.774C677.6 364.157 675.98 363.846 674.964 362.811C673.959 361.788 673.67 360.209 673.954 358.803C674.484 356.185 677.4 351.935 680.553 353.17C683.775 354.433 684.061 358.653 682.376 361.183Z" fill="white" stroke="#2F2F2F" stroke-width="2.5" stroke-miterlimit="10" stroke-linecap="round" stroke-linejoin="round"/>
<path d="M713.689 208.408C682.773 260.401 663.657 319.365 658.186 379.608" stroke="#2F2F2F" stroke-width="2.5" stroke-miterlimit="10" stroke-linecap="round" stroke-linejoin="round"/>
<path d="M950.982 203.127C953.733 198.342 958.667 190.394 958.667 190.394" stroke="#2F2F2F" stroke-width="2.5" stroke-miterlimit="10" stroke-linecap="round" stroke-linejoin="round"/>
<path d="M958.816 206.079C959.738 205.329 960.339 204.79 960.339 204.79" stroke="#2F2F2F" stroke-width="2.5" stroke-miterlimit="10" stroke-linecap="round" stroke-linejoin="round"/>
<path d="M945.146 196.943C947.467 191.386 951.507 182.659 951.507 182.659" stroke="#2F2F2F" stroke-width="2.5" stroke-miterlimit="10" stroke-linecap="round" stroke-linejoin="round"/>
<path d="M950.244 204.014C950.7 203.497 950.982 203.127 950.982 203.127" stroke="#2F2F2F" stroke-width="2.5" stroke-miterlimit="10" stroke-linecap="round" stroke-linejoin="round"/>
<path d="M943.05 179.189C943.05 179.189 941.478 182.391 939.701 186.347L935.953 195.446" stroke="#2F2F2F" stroke-width="2.5" stroke-miterlimit="10" stroke-linecap="round" stroke-linejoin="round"/>
<path d="M900.988 105.911C901.332 105.577 901.692 105.244 902.05 104.91L902.037 104.895L900.988 105.911Z" stroke="#2F2F2F" stroke-width="2.5" stroke-miterlimit="10" stroke-linecap="round" stroke-linejoin="round"/>
<path d="M859.947 144.773L860.107 144.939C860.223 144.714 860.354 144.49 860.5 144.238C861.939 141.786 886.267 119.024 890.355 114.995L890.132 115.21C885.858 119.35 861.423 142.258 859.947 144.773Z" stroke="#2F2F2F" stroke-width="2.5" stroke-miterlimit="10" stroke-linecap="round" stroke-linejoin="round"/>
<path d="M860.107 144.939L865.617 150.627L898.131 121.37L891.195 114.209C890.944 114.438 890.707 114.653 890.47 114.883L890.355 114.994C886.267 119.024 861.939 141.786 860.5 144.238C860.354 144.49 860.224 144.714 860.107 144.939Z" fill="white" stroke="#2F2F2F" stroke-width="2.5" stroke-miterlimit="10" stroke-linecap="round" stroke-linejoin="round"/>
<path d="M859.947 144.773L860.107 144.939C860.223 144.714 860.354 144.49 860.5 144.238C861.939 141.786 886.267 119.024 890.355 114.995L890.132 115.21C885.858 119.35 861.423 142.258 859.947 144.773Z" stroke="#2F2F2F" stroke-width="2.5" stroke-miterlimit="10" stroke-linecap="round" stroke-linejoin="round"/>
<path d="M900.988 105.911C901.332 105.577 901.692 105.244 902.05 104.91L902.037 104.895L900.988 105.911Z" stroke="#2F2F2F" stroke-width="2.5" stroke-miterlimit="10" stroke-linecap="round" stroke-linejoin="round"/>
<path d="M934.756 202.215L963.168 231.543L966.54 235.027C968.038 236.574 970.502 236.625 972.059 235.123L976.933 230.39C978.475 228.905 978.518 226.423 977.02 224.875L968.661 216.249L958.816 206.079C956.199 208.22 951.008 212.14 949.711 210.6C948.603 209.281 949.076 206.801 950.234 204.018C948.819 205.588 945.685 208.548 943.559 206.517C942.429 205.439 943.485 201.395 945.145 196.943C944.958 197.039 942.334 198.37 940.389 199.478C940.758 200.024 940.886 200.471 940.687 200.782C939.591 202.547 937.276 202.725 934.756 202.215Z" fill="#46CD81" stroke="#2F2F2F" stroke-width="2.5" stroke-miterlimit="10" stroke-linecap="round" stroke-linejoin="round"/>
<path d="M916.082 182.941L922.304 189.367C923.6 188.786 925.125 188.805 926.448 189.487C927.353 189.953 928.393 190.544 929.493 191.196C930.658 187.608 932.236 183.336 933.522 179.967L926.562 172.79C925.081 171.257 922.653 171.212 921.103 172.656L916.127 177.479C914.619 178.992 914.601 181.408 916.082 182.941Z" fill="#46CD81" stroke="#2F2F2F" stroke-width="2.5" stroke-miterlimit="10" stroke-linecap="round" stroke-linejoin="round"/>
<path d="M859.725 173.172C857.793 175.112 851.082 171.56 844.739 165.243C838.396 158.926 834.822 152.232 836.754 150.292C838.686 148.352 845.393 151.9 851.736 158.217C858.079 164.535 861.658 171.232 859.725 173.172Z" fill="white" stroke="#2F2F2F" stroke-width="2.5" stroke-miterlimit="10" stroke-linecap="round" stroke-linejoin="round"/>
<path d="M916.058 119.615L859.726 173.172C861.658 171.232 858.079 164.535 851.736 158.217C845.394 151.9 838.686 148.353 836.754 150.293L893.087 96.7357C895.019 94.7958 901.726 98.3436 908.069 104.661C914.412 110.978 917.99 117.675 916.058 119.615Z" fill="#B6E0EC" stroke="#2F2F2F" stroke-width="2.5" stroke-miterlimit="10" stroke-linecap="round" stroke-linejoin="round"/>
<path d="M848.181 162.464L837.677 172.411C831.79 177.986 831.673 187.323 837.417 193.045H837.417C842.94 198.545 851.838 198.646 857.483 193.272L887.988 164.236C893.543 158.658 902.568 158.64 908.146 164.195L918.466 174.474" stroke="#2F2F2F" stroke-width="2.5" stroke-miterlimit="10" stroke-linecap="round" stroke-linejoin="round"/>
<path d="M707.713 70.9292C707.713 70.9292 707 73.9265 705.6 78.766" stroke="#2F2F2F" stroke-width="2.5" stroke-miterlimit="10" stroke-linecap="round" stroke-linejoin="round"/>
<path d="M743.694 171.389C705.565 171.389 682.899 143.056 679.199 138.055C693.587 120.232 702.729 92.992 706.378 80.5694C708.355 81.4749 710.405 81.9549 712.49 81.9991L712.754 82.0013C716.086 82.0013 719.622 80.9395 723.564 78.7557C728.101 76.2523 732.115 73.0234 735.513 69.145C739.309 73.6158 744.559 76.2289 750.791 76.7291C751.372 76.7757 751.966 76.7994 752.554 76.7994C757.694 76.7994 762.747 75.0545 766.789 71.9433C767.046 74.9803 768.059 77.701 769.936 80.4957C772.376 84.1285 775.604 87.0663 778.438 89.4605C780.427 91.1045 782.723 92.9114 785.291 94.0445C783.738 105.916 780.943 136.692 780.616 163.191C768.02 168.632 755.603 171.389 743.694 171.389Z" fill="white"/>
<path d="M735.512 71.0098C739.432 75.0957 744.622 77.4883 750.691 77.9751C751.306 78.0244 751.932 78.0493 752.553 78.0493C757.264 78.0493 761.906 76.6582 765.838 74.1387C766.33 76.5762 767.332 78.8609 768.899 81.1929C771.425 84.9541 774.731 87.9658 777.652 90.4326C779.482 91.9453 781.576 93.5986 783.936 94.7866C782.376 107.156 779.742 136.645 779.377 162.361C767.194 167.524 755.197 170.14 743.694 170.14C722.365 170.14 706.138 161.066 696.281 153.455C688.175 147.196 682.909 140.863 680.777 138.079C687.237 129.855 698.114 112.721 707.186 82.251C708.905 82.876 710.674 83.2105 712.475 83.249L712.753 83.2514C716.302 83.2514 720.037 82.1386 724.166 79.851C728.42 77.5035 732.226 74.5367 735.512 71.0098ZM735.545 67.1719C732.067 71.4282 727.785 74.9986 722.958 77.6621C719.819 79.4014 716.351 80.7515 712.754 80.7515C712.675 80.7515 712.595 80.751 712.516 80.7495C710.054 80.6968 707.702 79.9653 705.599 78.7656C701.728 92.2842 692.409 120.154 677.625 138.005C677.625 138.005 700.893 172.64 743.694 172.64C755.06 172.64 767.805 170.197 781.856 164.014C782.141 136.866 785.102 104.59 786.659 93.249C783.933 92.2563 781.513 90.3803 779.245 88.5058C776.179 85.916 773.214 83.1332 770.974 79.7988C768.734 76.4638 767.783 73.2441 768.004 69.229C763.947 73.2305 758.26 75.5493 752.553 75.5493C751.999 75.5493 751.444 75.5273 750.891 75.4829C744.644 74.982 739.263 72.2173 735.545 67.1719Z" fill="#2F2F2F"/>
<path d="M786.659 93.2488C787.178 89.57 787.521 87.4731 787.521 87.4731" stroke="#2F2F2F" stroke-width="2.5" stroke-miterlimit="10" stroke-linecap="round" stroke-linejoin="round"/>
<path d="M812.052 55.1537C810.057 60.3584 805.656 64.2094 801.391 67.8445C805.353 73.0324 806.822 79.3521 804.183 85.3088C801.537 91.2949 794.573 95.2861 788.203 93.7523C787.682 93.6138 787.162 93.4752 786.659 93.2489C783.933 92.2564 781.513 90.3805 779.245 88.5058C776.179 85.9161 773.214 83.1334 770.974 79.7988C768.734 76.4642 767.783 73.2442 768.004 69.229C763.552 73.6191 757.138 75.9842 750.891 75.4831C744.644 74.982 739.263 72.2175 735.545 67.1721C732.067 71.4283 727.785 74.9986 722.958 77.6621C719.75 79.4398 716.198 80.8105 712.516 80.7494C710.054 80.697 707.702 79.9651 705.599 78.7659C701.681 76.4575 698.683 72.5078 697.488 68.1073C695.659 61.316 697.623 53.9062 701.464 48.0458C697.288 47.2718 693.381 44.1717 692.084 40.1167C690.788 36.0616 691.482 31.5338 693.455 27.7595C695.452 24.0207 698.616 20.9821 702.209 18.6735C705.519 16.5504 709.424 14.9477 713.338 15.3621C717.282 15.7826 721.143 18.6595 721.679 22.5568C722.16 17.4353 724.264 12.5888 728.17 9.21521C732.075 5.84161 737.301 4.05451 742.465 4.33111C745.759 4.49491 749.059 5.51491 751.696 7.52721C754.338 9.51001 756.269 12.5668 756.592 15.8704C761.405 11.7995 767.359 9.00321 773.616 9.01771C779.908 9.00901 786.33 12.2029 789.34 17.7124C792.177 22.8807 791.572 29.7782 787.869 34.3846C793.794 30.6968 801.661 31.7781 807.031 36.2194C812.429 40.6668 814.531 48.6447 812.052 55.1537Z" fill="#2F2F2F" stroke="#2F2F2F" stroke-width="2.5" stroke-miterlimit="10" stroke-linecap="round" stroke-linejoin="round"/>
<path d="M731.922 106.324C731.922 106.324 729.634 117.957 740.571 121.052C751.509 124.146 754.613 109.374 754.613 109.374" stroke="#2F2F2F" stroke-width="2.5" stroke-miterlimit="10" stroke-linecap="round" stroke-linejoin="round"/>
<path d="M708.052 96.4619C703.699 93.3784 698.153 91.0398 693.105 92.7619C688.865 94.2083 685.858 98.5547 685.784 103.034C685.709 107.513 688.45 111.865 692.424 113.934C696.398 116.002 701.407 115.799 705.318 113.614" fill="white"/>
<path d="M708.052 96.4619C703.699 93.3784 698.153 91.0398 693.105 92.7619C688.865 94.2083 685.858 98.5547 685.784 103.034C685.709 107.513 688.45 111.865 692.424 113.934C696.398 116.002 701.407 115.799 705.318 113.614" stroke="#2F2F2F" stroke-width="2.5" stroke-miterlimit="10" stroke-linecap="round" stroke-linejoin="round"/>
<path d="M778.081 112.527C779.838 107.947 784.845 104.843 789.729 105.307C791.814 105.505 793.927 106.362 795.193 108.031C796.805 110.156 796.738 113.118 796.133 115.716C795.158 119.905 792.834 123.926 789.17 126.18C785.507 128.433 780.421 128.569 777.067 125.876" fill="white"/>
<path d="M778.081 112.527C779.838 107.947 784.845 104.843 789.729 105.307C791.814 105.505 793.927 106.362 795.193 108.031C796.805 110.156 796.738 113.118 796.133 115.716C795.158 119.905 792.834 123.926 789.17 126.18C785.507 128.433 780.421 128.569 777.067 125.876" stroke="#2F2F2F" stroke-width="2.5" stroke-miterlimit="10" stroke-linecap="round" stroke-linejoin="round"/>
<path d="M703.547 72.289C698.693 71.1364 694.599 67.2178 693.234 62.4194C691.87 57.621 693.291 52.1345 696.812 48.6008C700.333 45.0671 705.814 43.6275 710.618 44.9749" stroke="#2F2F2F" stroke-width="2.5" stroke-miterlimit="10" stroke-linecap="round" stroke-linejoin="round"/>
<path d="M718.173 24.499C717.481 20.9864 716.787 17.4167 717.103 13.8508C717.419 10.2848 718.889 6.6588 721.773 4.5372C724.546 2.4968 728.194 2.11241 731.636 2.19081C737.603 2.32671 743.541 3.6507 749.001 6.0627" stroke="#2F2F2F" stroke-width="2.5" stroke-miterlimit="10" stroke-linecap="round" stroke-linejoin="round"/>
<path d="M754.872 17.4442C754.333 13.8488 756.654 10.2501 759.816 8.45689C762.979 6.66359 766.799 6.40249 770.415 6.78099C774.273 7.18479 778.177 8.33409 781.124 10.8558C784.071 13.3775 785.872 17.4663 784.925 21.2276" stroke="#2F2F2F" stroke-width="2.5" stroke-miterlimit="10" stroke-linecap="round" stroke-linejoin="round"/>
<path d="M786.135 32.3591C789.111 29.0314 793.173 26.5835 797.597 25.982C802.02 25.3805 806.771 26.7619 809.869 29.9771C812.966 33.1923 814.146 38.2609 812.384 42.3627" stroke="#2F2F2F" stroke-width="2.5" stroke-miterlimit="10" stroke-linecap="round" stroke-linejoin="round"/>
<path d="M381.927 396.386C405.152 396.386 423.98 369.165 423.98 335.586C423.98 302.007 405.152 274.786 381.927 274.786C358.701 274.786 339.874 302.007 339.874 335.586C339.874 369.165 358.701 396.386 381.927 396.386Z" fill="#B6E0EC" stroke="#2F2F2F" stroke-width="2.5" stroke-miterlimit="10" stroke-linecap="round" stroke-linejoin="round"/>
<path d="M381.927 339.305V484.678" stroke="#2F2F2F" stroke-width="2.5" stroke-miterlimit="10" stroke-linecap="round" stroke-linejoin="round"/>
<path d="M633.063 243.468C658.034 243.468 678.276 223.225 678.276 198.255C678.276 173.284 658.034 153.042 633.063 153.042C608.093 153.042 587.85 173.284 587.85 198.255C587.85 223.225 608.093 243.468 633.063 243.468Z" fill="#46CD81" stroke="#2F2F2F" stroke-width="2.5" stroke-miterlimit="10" stroke-linecap="round" stroke-linejoin="round"/>
<path d="M633.063 198.255V274.206" stroke="#2F2F2F" stroke-width="2.5" stroke-miterlimit="10" stroke-linecap="round" stroke-linejoin="round"/>
<path d="M604.839 207.625V599.265L446.829 615.955V500.035L395.24 489.719V256L604.839 207.625Z" fill="white" stroke="#2F2F2F" stroke-width="2.5" stroke-miterlimit="10" stroke-linecap="round" stroke-linejoin="round"/>
<path d="M731.459 285.765V585.885L604.839 599.265V207.625L731.459 285.765Z" fill="white" stroke="#2F2F2F" stroke-width="2.5" stroke-miterlimit="10" stroke-linecap="round" stroke-linejoin="round"/>
<path d="M467.639 414.465V473.625L430.149 480.825V421.655L467.639 414.465Z" fill="url(#paint5_linear_3601_15043)"/>
<path d="M467.639 291.685V351.165L430.149 359.234V299.765L467.639 291.685Z" fill="url(#paint6_linear_3601_15043)"/>
<path d="M467.639 536.334V594.895L430.149 599.995V541.435L467.639 536.334Z" fill="url(#paint7_linear_3601_15043)"/>
<path d="M560.149 271.755V331.225L522.659 339.305V279.825L560.149 271.755Z" fill="url(#paint8_linear_3601_15043)"/>
<path d="M560.149 396.705V455.865L522.659 463.065V403.895L560.149 396.705Z" fill="url(#paint9_linear_3601_15043)"/>
<path d="M560.149 523.734V582.294L522.659 587.405V528.834L560.149 523.734Z" fill="url(#paint10_linear_3601_15043)"/>
<path d="M888.449 794.965H871.959" stroke="#2F2F2F" stroke-width="2.5" stroke-miterlimit="10" stroke-linecap="round" stroke-linejoin="round"/>
<path d="M55.4189 794.965H92.8289H165.339" fill="white"/>
<path d="M55.4189 794.965H92.8289H165.339" stroke="#2F2F2F" stroke-width="2.5" stroke-miterlimit="10" stroke-linecap="round" stroke-linejoin="round"/>
<path d="M446.829 500.035V794.965H301.469V470.965L424.519 495.575L446.829 500.035Z" fill="white" stroke="#2F2F2F" stroke-width="2.5" stroke-miterlimit="10" stroke-linecap="round" stroke-linejoin="round"/>
<path d="M871.959 639.575V794.965H762.839V582.575L871.959 639.575Z" fill="white" stroke="#2F2F2F" stroke-width="2.5" stroke-miterlimit="10" stroke-linecap="round" stroke-linejoin="round"/>
<path d="M301.469 470.965V794.965H198.249V533.645L301.469 470.965Z" fill="white" stroke="#2F2F2F" stroke-width="2.5" stroke-miterlimit="10" stroke-linecap="round" stroke-linejoin="round"/>
<path d="M351.959 509.845V572.535L328.149 570.015V505.645L351.959 509.845Z" fill="url(#paint11_linear_3601_15043)"/>
<path d="M328.149 594.395L351.959 596.515V669.105L328.149 667.925V594.395Z" fill="url(#paint12_linear_3601_15043)"/>
<path d="M328.149 694.865L351.959 695.615V768.194L328.149 768.365V694.865Z" fill="url(#paint13_linear_3601_15043)"/>
<path d="M419.049 521.685V579.615L395.239 577.105V517.484L419.049 521.685Z" fill="url(#paint14_linear_3601_15043)"/>
<path d="M395.239 600.355L419.049 602.465V672.455L395.239 671.265V600.355Z" fill="url(#paint15_linear_3601_15043)"/>
<path d="M395.239 696.984L419.049 697.734V767.725L395.239 767.895V696.984Z" fill="url(#paint16_linear_3601_15043)"/>
<path d="M817.399 749.97C840.624 749.97 859.452 722.748 859.452 689.169C859.452 655.59 840.624 628.369 817.399 628.369C794.174 628.369 775.346 655.59 775.346 689.169C775.346 722.748 794.174 749.97 817.399 749.97Z" fill="#B6E0EC" stroke="#2F2F2F" stroke-width="2.5" stroke-miterlimit="10" stroke-linecap="round" stroke-linejoin="round"/>
<path d="M817.399 689.169V794.965" stroke="#2F2F2F" stroke-width="2.5" stroke-miterlimit="10" stroke-linecap="round" stroke-linejoin="round"/>
<path d="M749.637 382.135C762.952 382.135 773.746 371.341 773.746 358.026C773.746 344.711 762.952 333.917 749.637 333.917C736.321 333.917 725.527 344.711 725.527 358.026C725.527 371.341 736.321 382.135 749.637 382.135Z" fill="#46CD81" stroke="#2F2F2F" stroke-width="2.5" stroke-miterlimit="10" stroke-linecap="round" stroke-linejoin="round"/>
<path d="M749.636 447.969C767.816 447.969 782.553 433.232 782.553 415.052C782.553 396.873 767.816 382.135 749.636 382.135C731.457 382.135 716.719 396.873 716.719 415.052C716.719 433.232 731.457 447.969 749.636 447.969Z" fill="#46CD81" stroke="#2F2F2F" stroke-width="2.5" stroke-miterlimit="10" stroke-linecap="round" stroke-linejoin="round"/>
<path d="M749.637 540.211C775.108 540.211 795.757 519.562 795.757 494.09C795.757 468.618 775.108 447.969 749.637 447.969C724.165 447.969 703.516 468.618 703.516 494.09C703.516 519.562 724.165 540.211 749.637 540.211Z" fill="#46CD81" stroke="#2F2F2F" stroke-width="2.5" stroke-miterlimit="10" stroke-linecap="round" stroke-linejoin="round"/>
<path d="M749.637 494.09V583.965" stroke="#2F2F2F" stroke-width="2.5" stroke-miterlimit="10" stroke-linecap="round" stroke-linejoin="round"/>
<path d="M422.72 591.119C436.035 591.119 446.829 580.325 446.829 567.01C446.829 553.694 436.035 542.9 422.72 542.9C409.405 542.9 398.611 553.694 398.611 567.01C398.611 580.325 409.405 591.119 422.72 591.119Z" fill="#B6E0EC" stroke="#2F2F2F" stroke-width="2.5" stroke-miterlimit="10" stroke-linecap="round" stroke-linejoin="round"/>
<path d="M422.72 656.953C440.899 656.953 455.637 642.215 455.637 624.036C455.637 605.856 440.899 591.119 422.72 591.119C404.54 591.119 389.803 605.856 389.803 624.036C389.803 642.215 404.54 656.953 422.72 656.953Z" fill="#B6E0EC" stroke="#2F2F2F" stroke-width="2.5" stroke-miterlimit="10" stroke-linecap="round" stroke-linejoin="round"/>
<path d="M422.72 749.195C448.192 749.195 468.841 728.546 468.841 703.074C468.841 677.602 448.192 656.953 422.72 656.953C397.248 656.953 376.599 677.602 376.599 703.074C376.599 728.546 397.248 749.195 422.72 749.195Z" fill="#B6E0EC" stroke="#2F2F2F" stroke-width="2.5" stroke-miterlimit="10" stroke-linecap="round" stroke-linejoin="round"/>
<path d="M422.72 703.074V792.949" stroke="#2F2F2F" stroke-width="2.5" stroke-miterlimit="10" stroke-linecap="round" stroke-linejoin="round"/>
<path d="M762.839 582.575V794.965H446.829V615.955L604.839 599.265L731.459 585.885L762.839 582.575Z" fill="white" stroke="#2F2F2F" stroke-width="2.5" stroke-miterlimit="10" stroke-linecap="round" stroke-linejoin="round"/>
<path d="M574.139 720.845V759.875L464.169 762.375V723.605L574.139 720.845Z" fill="url(#paint17_linear_3601_15043)"/>
<path d="M574.139 637.225V677.245L464.169 682.765V645.734L574.139 637.225Z" fill="url(#paint18_linear_3601_15043)"/>
<path d="M727.269 717.005V756.385L617.289 758.895V719.765L727.269 717.005Z" fill="url(#paint19_linear_3601_15043)"/>
<path d="M727.269 625.375V669.565L617.289 675.084V633.885L727.269 625.375Z" fill="url(#paint20_linear_3601_15043)"/>
<defs>
<linearGradient id="paint0_linear_3601_15043" x1="0.167464" y1="430.402" x2="987.932" y2="366.356" gradientUnits="userSpaceOnUse">
<stop stop-color="#B6E0EC"/>
<stop offset="0.9788" stop-color="#9174F3"/>
</linearGradient>
<linearGradient id="paint1_linear_3601_15043" x1="340.915" y1="244.509" x2="382.143" y2="641.616" gradientUnits="userSpaceOnUse">
<stop stop-color="#B6E0EC"/>
<stop offset="0.9788" stop-color="#9174F3"/>
</linearGradient>
<linearGradient id="paint2_linear_3601_15043" x1="213.275" y1="270.212" x2="239.845" y2="260.223" gradientUnits="userSpaceOnUse">
<stop stop-color="#6FEAA5"/>
<stop offset="1" stop-color="#128650"/>
</linearGradient>
<linearGradient id="paint3_linear_3601_15043" x1="349.991" y1="215.609" x2="323.421" y2="225.599" gradientUnits="userSpaceOnUse">
<stop stop-color="#6FEAA5"/>
<stop offset="1" stop-color="#128650"/>
</linearGradient>
<linearGradient id="paint4_linear_3601_15043" x1="676.106" y1="138.537" x2="679.496" y2="537.732" gradientUnits="userSpaceOnUse">
<stop stop-color="#9174F3"/>
<stop offset="1" stop-color="#55BF90"/>
</linearGradient>
<linearGradient id="paint5_linear_3601_15043" x1="379.521" y1="306.114" x2="594.591" y2="744.89" gradientUnits="userSpaceOnUse">
<stop stop-color="#55BF90"/>
<stop offset="1" stop-color="#9174F3"/>
</linearGradient>
<linearGradient id="paint6_linear_3601_15043" x1="427.81" y1="282.445" x2="642.88" y2="721.221" gradientUnits="userSpaceOnUse">
<stop stop-color="#55BF90"/>
<stop offset="1" stop-color="#9174F3"/>
</linearGradient>
<linearGradient id="paint7_linear_3601_15043" x1="331.891" y1="329.46" x2="546.961" y2="768.237" gradientUnits="userSpaceOnUse">
<stop stop-color="#55BF90"/>
<stop offset="1" stop-color="#9174F3"/>
</linearGradient>
<linearGradient id="paint8_linear_3601_15043" x1="510.276" y1="242.024" x2="725.346" y2="680.8" gradientUnits="userSpaceOnUse">
<stop stop-color="#55BF90"/>
<stop offset="1" stop-color="#9174F3"/>
</linearGradient>
<linearGradient id="paint9_linear_3601_15043" x1="461.13" y1="266.113" x2="676.2" y2="704.889" gradientUnits="userSpaceOnUse">
<stop stop-color="#55BF90"/>
<stop offset="1" stop-color="#9174F3"/>
</linearGradient>
<linearGradient id="paint10_linear_3601_15043" x1="411.459" y1="290.46" x2="626.528" y2="729.236" gradientUnits="userSpaceOnUse">
<stop stop-color="#55BF90"/>
<stop offset="1" stop-color="#9174F3"/>
</linearGradient>
<linearGradient id="paint11_linear_3601_15043" x1="364.524" y1="476.871" x2="256.524" y2="751.475" gradientUnits="userSpaceOnUse">
<stop stop-color="#55BF90"/>
<stop offset="1" stop-color="#9174F3"/>
</linearGradient>
<linearGradient id="paint12_linear_3601_15043" x1="396.085" y1="489.284" x2="288.085" y2="763.888" gradientUnits="userSpaceOnUse">
<stop stop-color="#55BF90"/>
<stop offset="1" stop-color="#9174F3"/>
</linearGradient>
<linearGradient id="paint13_linear_3601_15043" x1="430.071" y1="502.65" x2="322.071" y2="777.254" gradientUnits="userSpaceOnUse">
<stop stop-color="#55BF90"/>
<stop offset="1" stop-color="#9174F3"/>
</linearGradient>
<linearGradient id="paint14_linear_3601_15043" x1="425.849" y1="500.99" x2="317.849" y2="775.594" gradientUnits="userSpaceOnUse">
<stop stop-color="#55BF90"/>
<stop offset="1" stop-color="#9174F3"/>
</linearGradient>
<linearGradient id="paint15_linear_3601_15043" x1="455.773" y1="512.759" x2="347.773" y2="787.363" gradientUnits="userSpaceOnUse">
<stop stop-color="#55BF90"/>
<stop offset="1" stop-color="#9174F3"/>
</linearGradient>
<linearGradient id="paint16_linear_3601_15043" x1="488.455" y1="525.612" x2="380.455" y2="800.216" gradientUnits="userSpaceOnUse">
<stop stop-color="#55BF90"/>
<stop offset="1" stop-color="#9174F3"/>
</linearGradient>
<linearGradient id="paint17_linear_3601_15043" x1="431.273" y1="676.362" x2="759.924" y2="920.373" gradientUnits="userSpaceOnUse">
<stop stop-color="#B6E0EC"/>
<stop offset="0.9788" stop-color="#9174F3"/>
</linearGradient>
<linearGradient id="paint18_linear_3601_15043" x1="468.498" y1="622.384" x2="797.149" y2="866.396" gradientUnits="userSpaceOnUse">
<stop stop-color="#B6E0EC"/>
<stop offset="0.9788" stop-color="#9174F3"/>
</linearGradient>
<linearGradient id="paint19_linear_3601_15043" x1="487.44" y1="600.713" x2="816.09" y2="844.725" gradientUnits="userSpaceOnUse">
<stop stop-color="#B6E0EC"/>
<stop offset="0.9788" stop-color="#9174F3"/>
</linearGradient>
<linearGradient id="paint20_linear_3601_15043" x1="527.586" y1="542.8" x2="856.237" y2="786.812" gradientUnits="userSpaceOnUse">
<stop stop-color="#B6E0EC"/>
<stop offset="0.9788" stop-color="#9174F3"/>
</linearGradient>
</defs>
</svg>
