<svg width="24" height="24" viewBox="0 0 24 24" fill="none" xmlns="http://www.w3.org/2000/svg">
<path d="M15.2998 14H15.3665" stroke="#727272" stroke-width="2" stroke-linecap="round" stroke-linejoin="round"/>
<path d="M18 10.6667V17.3333C18 17.5101 17.9298 17.6797 17.8047 17.8047C17.6797 17.9298 17.5101 18 17.3333 18H6.66667C6.48986 18 6.32029 17.9298 6.19526 17.8047C6.07024 17.6797 6 17.5101 6 17.3333V10.6667C6 10.4899 6.07024 10.3203 6.19526 10.1953C6.32029 10.0702 6.48986 10 6.66667 10H17.3333C17.5101 10 17.6797 10.0702 17.8047 10.1953C17.9298 10.3203 18 10.4899 18 10.6667ZM15.4733 10L16.6667 8.29333L13.3933 6L10.5867 10H15.4733ZM10.06 6L7.25333 10H10.5867L12.2933 7.56667L10.06 6Z" stroke="#727272" stroke-width="1.5" stroke-linecap="round" stroke-linejoin="round"/>
</svg>
