<svg width="24" height="25" viewBox="0 0 24 25" fill="none" xmlns="http://www.w3.org/2000/svg">
<g clip-path="url(#clip0_2499_91341)">
<path d="M0.746094 16.9184C2.44161 21.488 6.84012 24.7445 11.9997 24.7445C17.1593 24.7445 21.5578 21.488 23.2533 16.9184L11.9997 15.875L0.746094 16.9184Z" fill="#FFDA44"/>
<path d="M11.9997 0.742188C6.84012 0.742188 2.44161 3.99869 0.746094 8.5683L11.9997 9.61173L23.2533 8.56825C21.5578 3.99869 17.1593 0.742188 11.9997 0.742188Z" fill="black"/>
<path d="M0.746391 8.57031C0.264047 9.8703 0 11.2764 0 12.7442C0 14.212 0.264047 15.6181 0.746391 16.9181H23.2537C23.736 15.6181 24 14.212 24 12.7442C24 11.2764 23.736 9.8703 23.2536 8.57031H0.746391Z" fill="#D80027"/>
</g>
<defs>
<clipPath id="clip0_2499_91341">
<rect width="24" height="24" fill="white" transform="translate(0 0.742188)"/>
</clipPath>
</defs>
</svg>
