<svg width="24" height="25" viewBox="0 0 24 25" fill="none" xmlns="http://www.w3.org/2000/svg">
<g clip-path="url(#clip0_2499_91319)">
<path d="M12 24.7422C18.6274 24.7422 24 19.3696 24 12.7422C24 6.11477 18.6274 0.742188 12 0.742188C5.37258 0.742188 0 6.11477 0 12.7422C0 19.3696 5.37258 24.7422 12 24.7422Z" fill="#D80027"/>
<path d="M15.3393 10.1016L16.5225 11.732L18.4386 11.1107L17.2536 12.7397L18.4366 14.3701L16.5211 13.7464L15.3361 15.3754L15.3374 13.3611L13.4219 12.7374L15.3381 12.1161L15.3393 10.1016Z" fill="#F0F0F0"/>
<path d="M12.1104 16.8176C9.85975 16.8176 8.03515 14.993 8.03515 12.7423C8.03515 10.4916 9.85975 8.66703 12.1104 8.66703C12.8122 8.66703 13.4724 8.84452 14.0489 9.15686C13.1446 8.27239 11.9077 7.72656 10.543 7.72656C7.77288 7.72656 5.52734 9.97216 5.52734 12.7422C5.52734 15.5123 7.77294 17.7579 10.543 17.7579C11.9079 17.7579 13.1446 17.212 14.0489 16.3276C13.4724 16.6401 12.8122 16.8176 12.1104 16.8176Z" fill="#F0F0F0"/>
</g>
<defs>
<clipPath id="clip0_2499_91319">
<rect width="24" height="24" fill="white" transform="translate(0 0.742188)"/>
</clipPath>
</defs>
</svg>
