<svg width="25" height="25" viewBox="0 0 25 25" fill="none" xmlns="http://www.w3.org/2000/svg">
<g clip-path="url(#clip0_61_65)">
<path d="M12.2619 24.8673C18.8889 24.7948 24.2024 19.3637 24.1299 12.7367C24.0573 6.10967 18.6263 0.796193 11.9993 0.868705C5.37226 0.941217 0.0587826 6.37226 0.131295 12.9993C0.203807 19.6263 5.63485 24.9398 12.2619 24.8673Z" fill="#F0F0F0"/>
<path d="M2.53113 5.6672C1.60219 6.90304 0.90731 8.32513 0.509741 9.86557L6.75257 9.79726L2.53113 5.6672Z" fill="#0052B4"/>
<path d="M23.6826 9.61208C23.2514 8.08071 22.5256 6.67576 21.5698 5.45895L17.4398 9.68039L23.6826 9.61208Z" fill="#0052B4"/>
<path d="M0.578232 16.126C1.00941 17.6574 1.73523 19.0623 2.691 20.2791L6.82106 16.0577L0.578232 16.126Z" fill="#0052B4"/>
<path d="M19.3314 3.26858C18.0956 2.33964 16.6735 1.64476 15.133 1.24719L15.2013 7.49002L19.3314 3.26858Z" fill="#0052B4"/>
<path d="M4.9298 22.4671C6.16564 23.3961 7.58773 24.0909 9.12817 24.4885L9.05986 18.2457L4.9298 22.4671Z" fill="#0052B4"/>
<path d="M8.87257 1.31564C7.3412 1.74682 5.93626 2.47263 4.71944 3.4284L8.94088 7.55846L8.87257 1.31564Z" fill="#0052B4"/>
<path d="M15.3886 24.42C16.92 23.9888 18.3249 23.263 19.5418 22.3072L15.3203 18.1771L15.3886 24.42Z" fill="#0052B4"/>
<path d="M17.5083 15.9408L21.7297 20.0709C22.6586 18.835 23.3535 17.4129 23.7511 15.8725L17.5083 15.9408Z" fill="#0052B4"/>
<path d="M24.0119 11.1731L13.6798 11.2861L13.5667 0.952361C13.0524 0.892384 12.5305 0.862893 11.9993 0.868705C11.4681 0.874517 10.9469 0.915422 10.4357 0.98662L10.5487 11.3188L0.21655 11.4319C0.154974 11.9462 0.125483 12.4681 0.131295 12.9993C0.137107 13.5305 0.178011 14.0516 0.249209 14.5629L10.5814 14.4498L10.6944 24.782C11.2071 24.8436 11.7307 24.8715 12.2603 24.8657C12.7898 24.8599 13.3126 24.819 13.8239 24.7478L13.7108 14.4156L24.043 14.3025C24.1046 13.7898 24.1325 13.2663 24.1267 12.7367C24.1209 12.2072 24.0799 11.6844 24.0087 11.1731L24.0119 11.1731Z" fill="#D80027"/>
<path d="M15.2961 15.965L20.7096 21.2613C20.9533 21.0122 21.1856 20.752 21.4067 20.484L16.7728 15.9504L15.2977 15.9665L15.2961 15.965Z" fill="#D80027"/>
<path d="M9.03382 16.0336L3.73753 21.447C3.98661 21.6907 4.24677 21.9231 4.51481 22.1442L9.04838 17.5103L9.03224 16.0352L9.03382 16.0336Z" fill="#D80027"/>
<path d="M8.96516 9.7732L3.55329 4.4769C3.3096 4.72598 3.07723 4.98614 2.85615 5.25417L7.49003 9.78774L8.96515 9.7716L8.96516 9.7732Z" fill="#D80027"/>
<path d="M15.2276 9.70411L20.5239 4.29064C20.2748 4.04695 20.0146 3.81459 19.7466 3.5935L15.213 8.22738L15.2292 9.7025L15.2276 9.70411Z" fill="#D80027"/>
</g>
<defs>
<clipPath id="clip0_61_65">
<rect width="24" height="24" fill="white" transform="translate(0 1) rotate(-0.626898)"/>
</clipPath>
</defs>
</svg>
