<svg width="24" height="25" viewBox="0 0 24 25" fill="none" xmlns="http://www.w3.org/2000/svg">
<g clip-path="url(#clip0_2499_91334)">
<path d="M0 12.7425C0 14.2104 0.264047 15.6164 0.746391 16.9164L12 17.4382L23.2536 16.9165C23.736 15.6164 24 14.2104 24 12.7425C24 11.2747 23.736 9.86862 23.2536 8.56864L12 8.04688L0.746391 8.56859C0.264047 9.86862 0 11.2747 0 12.7425H0Z" fill="black"/>
<path d="M11.9997 0.742188C6.84013 0.742188 2.44161 3.99869 0.746094 8.5683H23.2534C21.5578 3.99869 17.1593 0.742188 11.9997 0.742188Z" fill="#0052B4"/>
<path d="M23.2533 16.9141H0.746094C2.44161 21.4836 6.84012 24.7402 11.9997 24.7402C17.1593 24.7402 21.5578 21.4836 23.2533 16.9141Z" fill="#F0F0F0"/>
</g>
<defs>
<clipPath id="clip0_2499_91334">
<rect width="24" height="24" fill="white" transform="translate(0 0.742188)"/>
</clipPath>
</defs>
</svg>
