<svg width="32" height="32" viewBox="0 0 32 32" fill="none" xmlns="http://www.w3.org/2000/svg">
<g clip-path="url(#clip0_733_19617)">
<mask id="mask0_733_19617" style="mask-type:luminance" maskUnits="userSpaceOnUse" x="0" y="0" width="32" height="32">
<path d="M16 32C24.8366 32 32 24.8366 32 16C32 7.16344 24.8366 0 16 0C7.16344 0 0 7.16344 0 16C0 24.8366 7.16344 32 16 32Z" fill="white"/>
</mask>
<g mask="url(#mask0_733_19617)">
<path d="M0 0H32V32H0V0Z" fill="#0052B4"/>
<path d="M15.9992 6.26172L16.518 7.85547H18.1867L16.8305 8.83672L17.3492 10.4367L15.993 9.44922L14.6367 10.4367L15.1555 8.83672L13.7992 7.85547H15.4742L15.9992 6.26172ZM9.11172 9.11172L10.6117 9.87422L11.793 8.68672L11.5305 10.343L13.0242 11.1055L11.368 11.368L11.1055 13.0242L10.343 11.5242L8.68672 11.793L9.87422 10.6055L9.11172 9.11172ZM6.26172 15.9992L7.85547 15.4805V13.8117L8.83672 15.168L10.4367 14.6492L9.44922 16.0055L10.4367 17.3617L8.83672 16.843L7.85547 18.1992V16.5242L6.26172 15.9992ZM9.11172 22.8867L9.87422 21.3867L8.68672 20.2055L10.343 20.468L11.1055 18.9742L11.368 20.6305L13.0242 20.893L11.5242 21.6555L11.793 23.3117L10.6055 22.1242L9.11172 22.8867ZM15.9992 25.7367L15.4805 24.143H13.8117L15.168 23.1617L14.6492 21.5617L16.0055 22.5492L17.3617 21.5617L16.843 23.1617L18.1992 24.143H16.5242L15.9992 25.7367ZM22.8867 22.8867L21.3867 22.1242L20.2055 23.3117L20.468 21.6555L18.9742 20.893L20.6305 20.6305L20.893 18.9742L21.6555 20.4742L23.3117 20.2055L22.1242 21.393L22.8867 22.8867ZM25.7367 15.9992L24.143 16.518V18.1867L23.1617 16.8305L21.5617 17.3492L22.5492 15.993L21.5617 14.6367L23.1617 15.1555L24.143 13.7992V15.4742L25.7367 15.9992ZM22.8867 9.11172L22.1242 10.6117L23.3117 11.793L21.6555 11.5305L20.893 13.0242L20.6305 11.368L18.9742 11.1055L20.4742 10.343L20.2055 8.68672L21.393 9.87422L22.8867 9.11172Z" fill="#FFDA44"/>
</g>
</g>
<defs>
<clipPath id="clip0_733_19617">
<rect width="32" height="32" fill="white"/>
</clipPath>
</defs>
</svg>
