<svg width="32" height="32" viewBox="0 0 32 32" fill="none" xmlns="http://www.w3.org/2000/svg">
<g clip-path="url(#clip0_852_19530)">
<circle cx="16" cy="16" r="16" fill="white"/>
<g clip-path="url(#clip1_852_19530)">
<path d="M1.59766 18.8301H2.16813L2.5794 20.4267L3.0172 18.8301H3.58767L4.02547 20.4267L4.43674 18.8301H5.00721L4.34388 21.0203H3.74245L3.30465 19.465L2.85358 21.0203H2.25657L1.59766 18.8301Z" fill="#4D5F7C"/>
<path d="M5.58594 18.8301H6.15641V21.0203H5.58594V18.8301Z" fill="#4D5F7C"/>
<path d="M7.00052 18.8301H8.41564C9.01264 18.8301 9.15858 19.2028 9.15858 19.4927C9.15858 19.962 8.91977 20.2381 8.45544 20.2381H7.56656V21.0249H6.99609V18.8301H7.00052ZM7.57099 19.8516H8.18126C8.35373 19.8516 8.56599 19.8516 8.56599 19.5479C8.56599 19.2442 8.39353 19.2304 8.23432 19.2304H7.57099V19.8516Z" fill="#4D5F7C"/>
<path d="M11.0668 18.7793C12.2033 18.7793 12.3758 19.4833 12.3758 19.9342C12.3758 20.3897 12.2033 21.0891 11.0668 21.0891C9.93028 21.0891 9.75781 20.3897 9.75781 19.9342C9.75781 19.4787 9.93912 18.7793 11.0668 18.7793ZM11.0668 20.6796C11.5842 20.6796 11.7699 20.2793 11.7699 19.9342C11.7699 19.5891 11.5842 19.1888 11.0668 19.1888C10.5494 19.1888 10.3637 19.5891 10.3637 19.9342C10.3637 20.2793 10.5494 20.6796 11.0668 20.6796Z" fill="#4D5F7C"/>
<path d="M12.0807 7.01408C12.2531 6.82083 12.346 6.55856 12.3593 6.29629C12.346 5.46807 11.2758 4.79629 9.57768 4.25794L9.52462 4.24414V4.53402L9.56442 4.54782C10.4002 4.76868 11.0591 5.01715 11.5102 5.29322C11.9613 5.56929 12.2001 5.85917 12.2001 6.14905C12.2001 6.3561 12.0939 6.57696 11.8684 6.77021C11.3952 6.3377 10.6125 5.9788 9.60864 5.66132L9.54231 5.64751V5.93739L9.58211 5.9512C10.4179 6.17205 11.0768 6.42052 11.5279 6.69659C11.6075 6.75181 11.7004 6.80702 11.78 6.86224C11.435 7.11071 11.0636 7.31776 10.6832 7.4696C10.3648 7.33156 10.0066 7.20733 9.62191 7.0831L9.55557 7.06929V7.35917L9.59537 7.37298C9.87398 7.44199 10.126 7.52482 10.3648 7.59383C9.20179 8.00794 7.55671 8.35304 5.61092 8.5877V9.31929C7.60978 9.04322 9.3035 8.62911 10.4975 8.10917C10.6965 8.02635 10.8822 7.94353 11.0415 7.8469C11.2139 7.91592 11.3864 8.01255 11.5456 8.10917C11.6252 8.16439 11.7181 8.2196 11.7977 8.27482C11.4527 8.52328 11.0813 8.73034 10.7009 8.88218C10.3825 8.74414 10.0243 8.61991 9.6396 8.49567L9.57326 8.48187V8.78555L9.61306 8.79936C9.89166 8.86837 10.1437 8.9512 10.3825 9.02021C9.21948 9.43432 7.5744 9.77942 5.62861 10.0141V10.7319C7.62747 10.4558 9.32119 10.0417 10.5152 9.52175C10.7142 9.43893 10.8999 9.3561 11.0591 9.25948C11.2316 9.3285 11.3908 9.42512 11.55 9.52175C11.6296 9.57696 11.7225 9.63218 11.8021 9.68739C11.4571 9.93586 11.0857 10.1429 10.7054 10.2948C10.387 10.1567 10.0288 10.0325 9.64402 9.90825L9.57768 9.89445V10.1843L9.61749 10.1981C9.89609 10.2671 10.1482 10.35 10.387 10.419C9.2239 10.8331 7.57883 11.1782 5.63303 11.4129V12.1444C7.63189 11.8684 9.32562 11.4543 10.5196 10.9343C10.7186 10.8515 10.9044 10.7687 11.0636 10.6721C11.236 10.7411 11.4085 10.8377 11.5677 10.9343C11.6473 10.9895 11.7402 11.0448 11.8198 11.1C11.4748 11.3484 11.1034 11.5555 10.723 11.7073C10.3781 11.5555 10.0199 11.4313 9.66171 11.3208L9.54231 11.2932V11.5831L9.58211 11.5969C9.86071 11.6659 10.1128 11.7487 10.3516 11.8178C9.18853 12.2319 7.54345 12.577 5.59766 12.8116V13.5156C7.59651 13.2395 9.29024 12.8254 10.4842 12.3055C10.6832 12.2227 10.869 12.1398 11.0282 12.0432C11.2007 12.1122 11.3731 12.2089 11.5323 12.3055C11.6119 12.3607 11.7048 12.4159 11.7844 12.4711C11.4395 12.7196 11.068 12.9267 10.6877 13.0785C10.3427 12.9267 9.98453 12.8024 9.62633 12.692L9.56 12.6782V12.9681L9.5998 12.9819C9.8784 13.0509 10.1305 13.1337 10.3693 13.2027C9.20622 13.6168 7.56114 13.9619 5.61535 14.1966V14.9282C7.6142 14.6521 9.30793 14.238 10.5019 13.7181C10.7009 13.6352 10.8867 13.5524 11.0591 13.4558C11.2316 13.5248 11.4041 13.6214 11.5633 13.7181C11.6429 13.7733 11.7357 13.8285 11.8153 13.8837C11.5102 14.1322 11.0326 14.3806 10.4268 14.6015C9.2637 15.0294 7.60536 15.3745 5.63303 15.6092V16.3408C7.63189 16.0647 9.32562 15.6506 10.5196 15.1306C11.2228 14.827 11.749 14.4957 12.0807 14.1368C12.1868 14.261 12.2531 14.4129 12.2531 14.5923C12.2664 15.0892 11.6031 15.6 10.4268 16.0233C9.2239 16.4374 7.58325 16.7779 5.61092 17.0125V17.7441C7.60978 17.4681 9.3035 17.054 10.4975 16.534C11.6871 16.0233 12.4035 15.4205 12.4035 14.7303C12.3902 14.4681 12.2974 14.2196 12.1249 14.0264C12.2974 13.8331 12.3902 13.5708 12.4035 13.3086C12.3902 13.0463 12.2974 12.7978 12.1249 12.6184C12.2974 12.4251 12.3902 12.1629 12.4035 11.9006C12.3902 11.6383 12.2974 11.3898 12.1249 11.1966C12.2841 10.9895 12.377 10.7411 12.3902 10.4788C12.377 10.2165 12.2841 9.96807 12.1116 9.78862C12.2841 9.59537 12.377 9.3331 12.3902 9.07083C12.377 8.80856 12.2841 8.56009 12.1116 8.38064C12.2841 8.18739 12.377 7.92512 12.3902 7.66285C12.346 7.4558 12.2531 7.20733 12.0807 7.01408ZM11.1962 7.72727C11.5014 7.56163 11.7667 7.35457 12.0055 7.1061C12.1116 7.23034 12.178 7.38218 12.178 7.56163C12.178 7.76868 12.0718 7.98954 11.8463 8.18279C11.6473 8.00334 11.435 7.8515 11.1962 7.72727ZM12.1868 13.1705C12.1868 13.3776 12.0807 13.5984 11.8551 13.7917C11.6561 13.6122 11.4306 13.4604 11.2051 13.3362C11.5102 13.1705 11.7755 12.9635 12.0143 12.715C12.1205 12.853 12.1868 13.0049 12.1868 13.1705ZM12.1868 11.7671C12.1868 11.9742 12.0807 12.1951 11.8551 12.3883C11.6561 12.2089 11.4306 12.057 11.2051 11.9328C11.5102 11.7671 11.7755 11.5601 12.0143 11.3116C12.1205 11.4497 12.1868 11.6015 12.1868 11.7671ZM12.1868 10.3592C12.1868 10.5662 12.0807 10.7871 11.8551 10.9803C11.6561 10.8009 11.4306 10.649 11.2051 10.5248C11.5102 10.3592 11.7755 10.1521 12.0143 9.90365C12.1205 10.0417 12.1868 10.1935 12.1868 10.3592ZM12.1868 8.9558C12.1868 9.16285 12.0807 9.38371 11.8551 9.57696C11.6561 9.39751 11.4306 9.24567 11.2051 9.12144C11.5102 8.9558 11.7755 8.74874 12.0143 8.50028C12.1205 8.63831 12.1868 8.79015 12.1868 8.9558Z" fill="#4D5F7C"/>
<path d="M5.45312 22.248H5.69193L5.91746 23.0763L6.16953 22.248H6.39507L6.64713 23.0763L6.88594 22.248H7.11147L6.76653 23.3247H6.541L6.28893 22.4965L6.03686 23.3247H5.79806L5.45312 22.248Z" fill="#4D5F7C"/>
<path d="M7.33203 22.7867C7.33203 22.483 7.5045 22.2207 7.9423 22.2207C8.38011 22.2207 8.55257 22.483 8.55257 22.7867C8.55257 23.0903 8.38011 23.3526 7.9423 23.3526C7.5045 23.3342 7.33203 23.0765 7.33203 22.7867ZM8.30935 22.7867C8.30935 22.5658 8.13688 22.3863 7.92461 22.3863C7.71235 22.3863 7.53988 22.5658 7.53988 22.7867C7.53988 23.0075 7.71235 23.187 7.92461 23.187C8.12361 23.2008 8.29608 23.0489 8.30935 22.8419C8.30935 22.8143 8.30935 22.8005 8.30935 22.7867Z" fill="#4D5F7C"/>
<path d="M8.85311 22.248H9.50318C9.76852 22.248 9.84812 22.3723 9.84812 22.5379C9.86138 22.6484 9.78178 22.7588 9.67565 22.8002C9.79505 22.8278 9.82158 22.9382 9.82158 23.0901C9.82158 23.1729 9.83485 23.2419 9.86138 23.3109H9.62258C9.59605 23.2557 9.59605 23.2005 9.59605 23.1453C9.59605 22.9934 9.56952 22.883 9.42358 22.883H9.05211V23.3109H8.83984L8.85311 22.248ZM9.43685 22.7174C9.55625 22.7174 9.62258 22.676 9.62258 22.5655C9.62258 22.4413 9.55625 22.4137 9.43685 22.4137H9.06538V22.7312H9.43685V22.7174Z" fill="#4D5F7C"/>
<path d="M10.1914 22.248H10.4037V23.1453H11.0272V23.3247H10.1914C10.1914 23.3201 10.1914 22.248 10.1914 22.248Z" fill="#4D5F7C"/>
<path d="M11.3164 22.248H11.8736C12.2716 22.248 12.3777 22.4827 12.3777 22.8002C12.3777 23.0349 12.2716 23.3247 11.9267 23.3247H11.3164V22.248ZM11.5287 23.1453H11.8338C11.993 23.1453 12.1522 23.0901 12.1522 22.7726C12.1522 22.4275 11.9399 22.3999 11.8205 22.3999H11.5287V23.1453Z" fill="#4D5F7C"/>
<path d="M5.57422 24.1904H5.91915V25.2671H5.57422V24.1904Z" fill="#4D5F7C"/>
<path d="M6.2828 24.1904H6.6808L7.1584 24.8668V24.1904H7.49007V25.2671H7.10534L6.61447 24.5907V25.2671H6.26953V24.1904H6.2828Z" fill="#4D5F7C"/>
<path d="M7.75781 24.1904H8.85453V24.4251H8.48306V25.2533H8.13813V24.4251H7.76666V24.1904H7.75781Z" fill="#4D5F7C"/>
<path d="M9.1177 24.1904H10.1481V24.4251H9.45822V24.6183H10.1083V24.8392H9.45822V25.0325H10.1481V25.2671H9.11328C9.1177 25.2671 9.1177 24.1904 9.1177 24.1904Z" fill="#4D5F7C"/>
<path d="M10.4531 24.1904H10.7981V25.0048H11.4216V25.2533H10.4531V24.1904Z" fill="#4D5F7C"/>
<path d="M11.7148 24.1904H12.0554V25.0048H12.6922V25.2533H11.7281V24.1904H11.7148Z" fill="#4D5F7C"/>
<path d="M12.9727 24.1904H14.0075V24.4251H13.3176V24.6183H13.9677V24.8392H13.3176V25.0325H14.0075V25.2671H12.9727V24.1904Z" fill="#4D5F7C"/>
<path d="M15.554 24.8531C15.5142 25.0878 15.3948 25.3087 14.904 25.3087C14.4662 25.3087 14.2539 25.1154 14.2539 24.7427C14.2539 24.3838 14.4529 24.1768 14.904 24.1768C15.2224 24.1768 15.4744 24.2458 15.554 24.6323H15.1693C15.1428 24.508 15.0366 24.4114 14.904 24.4252C14.6917 24.4252 14.6121 24.5771 14.6121 24.7565C14.6121 24.936 14.6784 25.0878 14.904 25.0878C15.0366 25.1016 15.156 25.0188 15.1693 24.8807L15.554 24.8531Z" fill="#4D5F7C"/>
<path d="M15.7539 24.1904H16.8506V24.4251H16.4659V25.2533H16.1254V24.4251H15.7539V24.1904Z" fill="#4D5F7C"/>
<path d="M17.1016 24.1904H17.4465V24.8254C17.4465 25.0048 17.5261 25.0463 17.6853 25.0463C17.8445 25.0463 17.9241 24.991 17.9241 24.8254V24.1904H18.269V24.8806C18.269 25.1705 18.0568 25.2947 17.6853 25.2947C17.3138 25.2947 17.1016 25.1843 17.1016 24.8806V24.1904Z" fill="#4D5F7C"/>
<path d="M18.9136 24.1904H19.3381L19.7759 25.2671H19.4044L19.3381 25.0877H18.887L18.8207 25.2671H18.4492L18.9136 24.1904ZM19.1126 24.4665L18.9666 24.8668H19.2585L19.1126 24.4665Z" fill="#4D5F7C"/>
<path d="M20.0039 24.1904H20.3488V25.0048H20.9724V25.2533H20.0039V24.1904Z" fill="#4D5F7C"/>
<path d="M21.9766 24.1904H22.7328C23.0114 24.1904 23.1175 24.3423 23.1175 24.5493C23.1175 24.7288 23.0246 24.9082 22.7593 24.9082H22.3215V25.2671H21.9766V24.1904ZM22.3215 24.6874H22.6266C22.7195 24.6874 22.7593 24.646 22.7593 24.5493C22.7593 24.4527 22.7195 24.4113 22.6266 24.4113H22.3215V24.6874Z" fill="#4D5F7C"/>
<path d="M23.418 24.1904H24.2538C24.5058 24.1904 24.5987 24.3147 24.5987 24.4941C24.612 24.6045 24.5456 24.715 24.4395 24.7426C24.5191 24.7702 24.5722 24.853 24.5589 24.9358C24.5722 25.1429 24.5854 25.2119 24.6252 25.2671H24.2405C24.2272 25.2119 24.214 25.1567 24.2272 25.1015C24.2272 24.9358 24.1742 24.9082 24.0813 24.9082H23.7629V25.2671H23.418V24.1904ZM23.7629 24.6736H24.0813C24.1609 24.6736 24.214 24.6321 24.214 24.5493C24.214 24.4803 24.1742 24.4389 24.0813 24.4389H23.7629V24.6736Z" fill="#4D5F7C"/>
<path d="M25.536 24.1621C25.8942 24.1621 26.2126 24.2863 26.2126 24.7281C26.2126 25.1698 25.9074 25.294 25.536 25.294C25.1778 25.294 24.8594 25.1698 24.8594 24.7281C24.8594 24.2863 25.1645 24.1621 25.536 24.1621ZM25.536 25.0593C25.7084 25.0593 25.8544 24.9213 25.8676 24.7419C25.8676 24.5624 25.735 24.4106 25.5625 24.3968C25.39 24.3968 25.2441 24.5348 25.2308 24.7143C25.2308 24.7143 25.2308 24.7143 25.2308 24.7281C25.2176 24.8937 25.3237 25.0317 25.4829 25.0593C25.4962 25.0593 25.5094 25.0593 25.536 25.0593Z" fill="#4D5F7C"/>
<path d="M26.5156 24.1904H27.2674C27.546 24.1904 27.6521 24.3423 27.6521 24.5493C27.6521 24.7288 27.5593 24.9082 27.2939 24.9082H26.8561V25.2671H26.5156V24.1904ZM26.8606 24.6874H27.1657C27.2586 24.6874 27.2984 24.646 27.2984 24.5493C27.2984 24.4527 27.2586 24.4113 27.1657 24.4113H26.8606V24.6874Z" fill="#4D5F7C"/>
<path d="M27.957 24.1904H28.9918V24.4251H28.302V24.6183H28.952V24.8392H28.302V25.0325H28.9918V25.2671H27.957V24.1904Z" fill="#4D5F7C"/>
<path d="M29.2945 24.1904H30.1171C30.3691 24.1904 30.462 24.3147 30.462 24.4941C30.4753 24.6045 30.4089 24.715 30.3028 24.7426C30.3824 24.7702 30.4355 24.853 30.4222 24.9358C30.4355 25.1429 30.4487 25.2119 30.4885 25.2671H30.1171C30.1038 25.2119 30.0905 25.1567 30.0905 25.1015C30.0905 24.9358 30.0375 24.9082 29.9446 24.9082H29.6262V25.2671H29.2812V24.1904H29.2945ZM29.6395 24.6736H29.9711C30.0507 24.6736 30.1038 24.6321 30.1038 24.5493C30.1038 24.4803 30.064 24.4389 29.9711 24.4389H29.6395V24.6736Z" fill="#4D5F7C"/>
<path d="M30.6875 24.1904H31.7842V24.4251H31.4128V25.2533H31.0722V24.4251H30.7008V24.1904H30.6875Z" fill="#4D5F7C"/>
<path d="M32.355 24.9357L31.8906 24.2041H32.2886L32.5142 24.6596L32.7397 24.2041H33.1377L32.6734 24.9357V25.267H32.3284L32.355 24.9357Z" fill="#4D5F7C"/>
<path d="M5.45312 26.6841C5.45312 26.3804 5.62559 26.1182 6.0634 26.1182C6.5012 26.1182 6.67367 26.3804 6.67367 26.6841C6.67367 26.9878 6.5012 27.2501 6.0634 27.2501C5.62559 27.2501 5.45312 26.9878 5.45312 26.6841ZM6.44371 26.6841C6.44371 26.4633 6.27124 26.2838 6.05897 26.2838C5.84671 26.2838 5.67424 26.4633 5.67424 26.6841C5.67424 26.905 5.84671 27.0844 6.05897 27.0844C6.25798 27.0982 6.43044 26.9464 6.44371 26.7393C6.44371 26.7255 6.44371 26.6979 6.44371 26.6841Z" fill="#4D5F7C"/>
<path d="M6.98592 26.1455H7.63599C7.90133 26.1455 7.98093 26.2697 7.98093 26.4354C7.9942 26.5596 7.92786 26.6562 7.80846 26.6977C7.92786 26.7253 7.9544 26.8357 7.9544 26.9875C7.9544 27.0704 7.96766 27.1394 7.9942 27.2084H7.7554C7.72886 27.1532 7.72886 27.098 7.72886 27.0427C7.72886 26.8909 7.70233 26.7805 7.55639 26.7805H7.18492V27.2084H6.97266V26.1455H6.98592ZM7.56966 26.6286C7.68906 26.6286 7.7554 26.5872 7.7554 26.4768C7.7554 26.3526 7.68906 26.325 7.56966 26.325H7.19819V26.6424L7.56966 26.6286Z" fill="#4D5F7C"/>
<path d="M9.40966 27.2225H9.27699L9.25046 27.0844C9.14433 27.1949 9.01166 27.2639 8.85246 27.2501C8.41466 27.2501 8.24219 26.9878 8.24219 26.6841C8.24219 26.3804 8.42792 26.1182 8.83919 26.1182C9.15759 26.1182 9.3566 26.2838 9.38313 26.4909H9.14433C9.10453 26.3528 8.97186 26.27 8.83919 26.2838C8.57386 26.2838 8.46772 26.4495 8.46772 26.6841C8.44119 26.8774 8.57386 27.0568 8.75959 27.0706C8.78612 27.0706 8.79939 27.0706 8.82593 27.0706C9.03819 27.0706 9.14433 26.9602 9.18413 26.7945H8.87899V26.6289H9.40966V27.2225Z" fill="#4D5F7C"/>
<path d="M10.1229 26.1455H10.375L10.8393 27.2222H10.6005L10.4944 26.9599H10.0168L9.91068 27.2222H9.67188L10.1229 26.1455ZM10.4281 26.7805L10.2556 26.325L10.0831 26.7805H10.4281Z" fill="#4D5F7C"/>
<path d="M11.0898 26.1455H11.3419L11.9522 26.9461V26.1455H12.1645V27.2222H11.9256L11.3021 26.4216V27.2222H11.0898V26.1455Z" fill="#4D5F7C"/>
<path d="M12.5352 26.1455H12.7474V27.2222H12.5352V26.1455Z" fill="#4D5F7C"/>
<path d="M13.0391 27.0566L13.7422 26.3112H13.0789V26.1455H14.0208V26.3112L13.3177 27.0427H14.0473V27.2222H13.0523L13.0391 27.0566Z" fill="#4D5F7C"/>
<path d="M14.6659 26.1455H14.918L15.3823 27.2222H15.1435L15.0374 26.9599H14.5598L14.4536 27.2222H14.2148L14.6659 26.1455ZM14.971 26.7805L14.7986 26.325L14.6261 26.7805H14.971Z" fill="#4D5F7C"/>
<path d="M15.834 26.3112H15.4492V26.1455H16.4442V26.3112H16.0595V27.2084H15.8472V26.3112H15.834Z" fill="#4D5F7C"/>
<path d="M16.7031 26.1455H16.9154V27.2222H16.7031V26.1455Z" fill="#4D5F7C"/>
<path d="M17.2344 26.6841C17.2344 26.3804 17.4068 26.1182 17.8446 26.1182C18.2824 26.1182 18.4549 26.3804 18.4549 26.6841C18.4549 26.9878 18.2824 27.2501 17.8446 27.2501C17.4068 27.2501 17.2344 26.9878 17.2344 26.6841ZM18.2294 26.6841C18.2294 26.4633 18.0569 26.2838 17.8446 26.2838C17.6324 26.2838 17.4599 26.4633 17.4599 26.6841C17.4599 26.905 17.6324 27.0844 17.8446 27.0844C18.0436 27.0982 18.2161 26.9464 18.2294 26.7393C18.2294 26.7255 18.2294 26.6979 18.2294 26.6841Z" fill="#4D5F7C"/>
<path d="M18.7539 26.1455H19.006L19.6162 26.9461V26.1455H19.8285V27.2222H19.5897L18.9662 26.4216V27.2222H18.7539V26.1455Z" fill="#4D5F7C"/>
</g>
</g>
<rect x="0.5" y="0.5" width="31" height="31" rx="15.5" stroke="#DDDDDD"/>
<defs>
<clipPath id="clip0_852_19530">
<rect width="32" height="32" rx="16" fill="white"/>
</clipPath>
<clipPath id="clip1_852_19530">
<rect width="31" height="30" fill="white" transform="translate(1 1)"/>
</clipPath>
</defs>
</svg>
