<svg width="24" height="25" viewBox="0 0 24 25" fill="none" xmlns="http://www.w3.org/2000/svg">
<g clip-path="url(#clip0_2499_91326)">
<path d="M12 24.7422C18.6274 24.7422 24 19.3696 24 12.7422C24 6.11477 18.6274 0.742188 12 0.742188C5.37258 0.742188 0 6.11477 0 12.7422C0 19.3696 5.37258 24.7422 12 24.7422Z" fill="#F0F0F0"/>
<path d="M11.4805 12.7398H24.0022C24.0022 11.6567 23.8578 10.6075 23.5888 9.60938H11.4805V12.7398Z" fill="#D80027"/>
<path d="M11.4805 6.48202H22.2409C21.5063 5.28333 20.5671 4.22381 19.472 3.35156H11.4805V6.48202Z" fill="#D80027"/>
<path d="M12.0011 24.7415C14.8252 24.7415 17.421 23.7654 19.4709 22.1328H4.53125C6.58109 23.7654 9.17689 24.7415 12.0011 24.7415Z" fill="#D80027"/>
<path d="M1.76195 19.0055H22.2394C22.8291 18.0432 23.2865 16.9913 23.5873 15.875H0.414062C0.714859 16.9913 1.17222 18.0432 1.76195 19.0055Z" fill="#D80027"/>
<path d="M5.55863 2.61616H6.65217L5.63498 3.35514L6.02353 4.55087L5.00639 3.81189L3.98925 4.55087L4.32487 3.51789C3.42928 4.26391 2.64431 5.13794 1.99744 6.11181H2.34783L1.70034 6.5822C1.59947 6.75048 1.50272 6.92144 1.41 7.09492L1.71919 8.04653L1.14234 7.62742C0.998953 7.93122 0.867797 8.24186 0.749906 8.55897L1.09055 9.60747H2.34783L1.33064 10.3465L1.71919 11.5422L0.702047 10.8032L0.0927656 11.2459C0.0317812 11.7361 0 12.2354 0 12.7422H12C12 6.11481 12 5.3335 12 0.742188C9.62944 0.742188 7.41961 1.42984 5.55863 2.61616ZM6.02353 11.5422L5.00639 10.8032L3.98925 11.5422L4.3778 10.3465L3.36061 9.60747H4.61789L5.00639 8.41173L5.39489 9.60747H6.65217L5.63498 10.3465L6.02353 11.5422ZM5.63498 6.8508L6.02353 8.04653L5.00639 7.30755L3.98925 8.04653L4.3778 6.8508L3.36061 6.11181H4.61789L5.00639 4.91608L5.39489 6.11181H6.65217L5.63498 6.8508ZM10.3279 11.5422L9.31073 10.8032L8.29359 11.5422L8.68214 10.3465L7.66495 9.60747H8.92223L9.31073 8.41173L9.69923 9.60747H10.9565L9.93933 10.3465L10.3279 11.5422ZM9.93933 6.8508L10.3279 8.04653L9.31073 7.30755L8.29359 8.04653L8.68214 6.8508L7.66495 6.11181H8.92223L9.31073 4.91608L9.69923 6.11181H10.9565L9.93933 6.8508ZM9.93933 3.35514L10.3279 4.55087L9.31073 3.81189L8.29359 4.55087L8.68214 3.35514L7.66495 2.61616H8.92223L9.31073 1.42042L9.69923 2.61616H10.9565L9.93933 3.35514Z" fill="#0052B4"/>
</g>
<defs>
<clipPath id="clip0_2499_91326">
<rect width="24" height="24" fill="white" transform="translate(0 0.742188)"/>
</clipPath>
</defs>
</svg>
