<svg width="24" height="24" viewBox="0 0 24 24" fill="none" xmlns="http://www.w3.org/2000/svg">
<path d="M16.6663 17.665C13.6184 16.7783 10.3809 16.7783 7.33301 17.665" stroke="#727272" stroke-width="1.5" stroke-linecap="round" stroke-linejoin="round"/>
<path d="M18 14.0013V7.33464C18 7.15782 17.9298 6.98826 17.8047 6.86323C17.6797 6.73821 17.5101 6.66797 17.3333 6.66797H6.66667C6.48986 6.66797 6.32029 6.73821 6.19526 6.86323C6.07024 6.98826 6 7.15782 6 7.33464V14.0013C6 14.1781 6.07024 14.3477 6.19526 14.4727C6.32029 14.5977 6.48986 14.668 6.66667 14.668H17.3333C17.5101 14.668 17.6797 14.5977 17.8047 14.4727C17.9298 14.3477 18 14.1781 18 14.0013ZM10.6667 14.668V17.0546C11.5543 16.988 12.4457 16.988 13.3333 17.0546V14.668H10.6667Z" stroke="#727272" stroke-width="1.5" stroke-linecap="round" stroke-linejoin="round"/>
</svg>
