<svg width="24" height="24" viewBox="0 0 24 24" fill="none" xmlns="http://www.w3.org/2000/svg">
<path d="M19.2258 17.3866H18.4516V10.4189C18.4516 10.0767 18.3157 9.74847 18.0737 9.50649C17.8317 9.26451 17.5035 9.12856 17.1613 9.12856H14.8387V6.28985C14.8386 6.07295 14.7839 5.85956 14.6795 5.66942C14.5751 5.47928 14.4245 5.31852 14.2416 5.202C14.0586 5.08547 13.8492 5.01695 13.6328 5.00276C13.4163 4.98858 13.1998 5.02918 13.0032 5.12082L6.29355 8.25243C6.07116 8.35661 5.88301 8.52192 5.75106 8.72903C5.61912 8.93615 5.54882 9.17654 5.54839 9.42211V17.3866H4.77419C4.56886 17.3866 4.37195 17.4682 4.22676 17.6134C4.08157 17.7586 4 17.9555 4 18.1608C4 18.3662 4.08157 18.5631 4.22676 18.7083C4.37195 18.8534 4.56886 18.935 4.77419 18.935H19.2258C19.4311 18.935 19.6281 18.8534 19.7732 18.7083C19.9184 18.5631 20 18.3662 20 18.1608C20 17.9555 19.9184 17.7586 19.7732 17.6134C19.6281 17.4682 19.4311 17.3866 19.2258 17.3866ZM16.9032 10.677V17.3866H14.8387V10.677H16.9032ZM7.09677 9.58598L13.2903 6.69631V17.3866H7.09677V9.58598ZM12.2581 11.4511V12.2253C12.2581 12.4307 12.1765 12.6276 12.0313 12.7728C11.8861 12.918 11.6892 12.9995 11.4839 12.9995C11.2785 12.9995 11.0816 12.918 10.9364 12.7728C10.7912 12.6276 10.7097 12.4307 10.7097 12.2253V11.4511C10.7097 11.2458 10.7912 11.0489 10.9364 10.9037C11.0816 10.7585 11.2785 10.677 11.4839 10.677C11.6892 10.677 11.8861 10.7585 12.0313 10.9037C12.1765 11.0489 12.2581 11.2458 12.2581 11.4511ZM9.67742 11.4511V12.2253C9.67742 12.4307 9.59585 12.6276 9.45066 12.7728C9.30547 12.918 9.10855 12.9995 8.90323 12.9995C8.6979 12.9995 8.50098 12.918 8.35579 12.7728C8.2106 12.6276 8.12903 12.4307 8.12903 12.2253V11.4511C8.12903 11.2458 8.2106 11.0489 8.35579 10.9037C8.50098 10.7585 8.6979 10.677 8.90323 10.677C9.10855 10.677 9.30547 10.7585 9.45066 10.9037C9.59585 11.0489 9.67742 11.2458 9.67742 11.4511ZM9.67742 14.806V15.5802C9.67742 15.7855 9.59585 15.9824 9.45066 16.1276C9.30547 16.2728 9.10855 16.3544 8.90323 16.3544C8.6979 16.3544 8.50098 16.2728 8.35579 16.1276C8.2106 15.9824 8.12903 15.7855 8.12903 15.5802V14.806C8.12903 14.6007 8.2106 14.4037 8.35579 14.2585C8.50098 14.1134 8.6979 14.0318 8.90323 14.0318C9.10855 14.0318 9.30547 14.1134 9.45066 14.2585C9.59585 14.4037 9.67742 14.6007 9.67742 14.806ZM12.2581 14.806V15.5802C12.2581 15.7855 12.1765 15.9824 12.0313 16.1276C11.8861 16.2728 11.6892 16.3544 11.4839 16.3544C11.2785 16.3544 11.0816 16.2728 10.9364 16.1276C10.7912 15.9824 10.7097 15.7855 10.7097 15.5802V14.806C10.7097 14.6007 10.7912 14.4037 10.9364 14.2585C11.0816 14.1134 11.2785 14.0318 11.4839 14.0318C11.6892 14.0318 11.8861 14.1134 12.0313 14.2585C12.1765 14.4037 12.2581 14.6007 12.2581 14.806Z" fill="#4B4B4B"/>
</svg>
