<svg width="24" height="24" viewBox="0 0 24 24" fill="none" xmlns="http://www.w3.org/2000/svg">
<path d="M18.7472 9.95553L12.9815 4.51292L12.97 4.5021C12.705 4.25961 12.3588 4.12512 11.9997 4.12512C11.6405 4.12512 11.2943 4.25961 11.0293 4.5021L11.0171 4.51292L5.25282 9.95553C5.10664 10.0908 4.98994 10.2547 4.91003 10.4371C4.83012 10.6196 4.78871 10.8165 4.78839 11.0156V17.6828C4.78839 18.0653 4.94035 18.4322 5.21084 18.7027C5.48133 18.9732 5.84819 19.1251 6.23072 19.1251H9.6923C10.0748 19.1251 10.4417 18.9732 10.7122 18.7027C10.9827 18.4322 11.1346 18.0653 11.1346 17.6828V14.5097H12.8654V17.6828C12.8654 18.0653 13.0174 18.4322 13.2879 18.7027C13.5584 18.9732 13.9252 19.1251 14.3077 19.1251H17.7693C18.1519 19.1251 18.5187 18.9732 18.7892 18.7027C19.0597 18.4322 19.2116 18.0653 19.2116 17.6828V11.0156C19.2113 10.8165 19.1699 10.6196 19.09 10.4371C19.0101 10.2547 18.8934 10.0908 18.7472 9.95553ZM17.4809 17.3943H14.5962V14.2212C14.5962 14.0318 14.5589 13.8443 14.4864 13.6693C14.4139 13.4943 14.3077 13.3353 14.1738 13.2013C14.0398 13.0674 13.8808 12.9612 13.7058 12.8887C13.5308 12.8162 13.3433 12.7789 13.1539 12.7789H10.8462C10.4636 12.7789 10.0968 12.9308 9.82628 13.2013C9.55579 13.4718 9.40383 13.8387 9.40383 14.2212V17.3943H6.51918V11.1404L12 5.96606L17.4809 11.1404V17.3943Z" fill="#4B4B4B"/>
</svg>
