<svg width="24" height="24" viewBox="0 0 24 24" fill="none" xmlns="http://www.w3.org/2000/svg">
<path d="M10.9741 10.108C11.2471 10.3806 11.6171 10.5337 12.0029 10.5337C12.3887 10.5337 12.7587 10.3806 13.0317 10.108L15.0915 8.0431C15.3641 7.77023 15.5172 7.40034 15.5172 7.01467C15.5172 6.629 15.3641 6.25911 15.0915 5.98624L13.0259 3.92499C12.7527 3.65275 12.3827 3.49989 11.9971 3.49989C11.6114 3.49989 11.2415 3.65275 10.9683 3.92499L8.90848 5.99137C8.63593 6.26424 8.48284 6.63413 8.48284 7.0198C8.48284 7.40547 8.63593 7.77536 8.90848 8.04823L10.9741 10.108ZM12 5.38391L13.6326 7.01724L12 8.64982L10.3674 7.01724L12 5.38391ZM20.0743 10.9741L18.0086 8.90849C17.7356 8.63607 17.3656 8.48309 16.9798 8.48309C16.5941 8.48309 16.2241 8.63607 15.951 8.90849L13.8913 10.9741C13.6187 11.2471 13.4656 11.6171 13.4656 12.0029C13.4656 12.3887 13.6187 12.7587 13.8913 13.0317L15.9569 15.0915C16.2301 15.3637 16.6 15.5166 16.9857 15.5166C17.3714 15.5166 17.7413 15.3637 18.0145 15.0915L20.0743 13.0259C20.3469 12.7529 20.5 12.3829 20.5 11.9971C20.5 11.6113 20.3469 11.2413 20.0743 10.9683V10.9741ZM16.9828 13.6326L15.3502 12L16.9828 10.3674L18.6154 12L16.9828 13.6326ZM10.5345 12C10.5346 11.8094 10.4971 11.6206 10.4241 11.4446C10.351 11.2685 10.2438 11.1086 10.1087 10.9741L8.04309 8.90849C7.77 8.63607 7.40002 8.48309 7.01429 8.48309C6.62856 8.48309 6.25858 8.63607 5.9855 8.90849L3.9257 10.9741C3.65311 11.2471 3.5 11.6171 3.5 12.0029C3.5 12.3887 3.65311 12.7587 3.9257 13.0317L5.99136 15.0915C6.26454 15.3637 6.63449 15.5166 7.02015 15.5166C7.40582 15.5166 7.77577 15.3637 8.04895 15.0915L10.1087 13.0259C10.2438 12.8914 10.351 12.7315 10.4241 12.5554C10.4971 12.3794 10.5346 12.1906 10.5345 12ZM7.01722 13.6326L5.38463 12L7.01722 10.3674L8.64982 12L7.01722 13.6326ZM13.0259 13.8912C12.7527 13.619 12.3827 13.4662 11.9971 13.4662C11.6114 13.4662 11.2415 13.619 10.9683 13.8912L8.90848 15.9569C8.63593 16.2298 8.48284 16.5997 8.48284 16.9853C8.48284 17.371 8.63593 17.7409 8.90848 18.0138L10.9741 20.075C11.2473 20.3472 11.6173 20.5001 12.0029 20.5001C12.3886 20.5001 12.7585 20.3472 13.0317 20.075L15.0915 18.0086C15.3641 17.7358 15.5172 17.3659 15.5172 16.9802C15.5172 16.5945 15.3641 16.2246 15.0915 15.9518L13.0259 13.8912ZM12 18.6161L10.3674 16.9828L12 15.3502L13.6326 16.9828L12 18.6161Z" fill="#4B4B4B"/>
</svg>
