<svg width="24" height="24" viewBox="0 0 24 24" fill="none" xmlns="http://www.w3.org/2000/svg">
<path d="M12.0002 8.38889C11.286 8.38889 10.5879 8.60067 9.99401 8.99747C9.40016 9.39426 8.93732 9.95824 8.664 10.6181C8.39069 11.2779 8.31917 12.004 8.45851 12.7045C8.59784 13.405 8.94177 14.0484 9.44679 14.5534C9.95182 15.0585 10.5953 15.4024 11.2957 15.5417C11.9962 15.6811 12.7223 15.6096 13.3821 15.3362C14.042 15.0629 14.606 14.6001 15.0028 14.0062C15.3996 13.4124 15.6114 12.7142 15.6114 12C15.6102 11.0426 15.2294 10.1248 14.5525 9.44777C13.8755 8.7708 12.9576 8.38999 12.0002 8.38889ZM12.0002 13.9444C11.6157 13.9444 11.2397 13.8304 10.92 13.6167C10.6002 13.4031 10.351 13.0994 10.2038 12.7441C10.0566 12.3888 10.0181 11.9978 10.0932 11.6207C10.1682 11.2435 10.3534 10.897 10.6253 10.6251C10.8972 10.3531 11.2437 10.1679 11.6209 10.0929C11.9981 10.0179 12.389 10.0564 12.7443 10.2036C13.0996 10.3507 13.4033 10.6 13.617 10.9197C13.8306 11.2395 13.9447 11.6154 13.9447 12C13.9447 12.5157 13.7398 13.0103 13.3752 13.3749C13.0105 13.7396 12.5159 13.9444 12.0002 13.9444ZM19.9072 10.5021C19.8837 10.3847 19.8352 10.2738 19.765 10.1768C19.6947 10.0799 19.6044 9.9992 19.5002 9.94028L17.5704 8.83958L17.5627 6.66527C17.5623 6.54464 17.5357 6.42553 17.4848 6.31618C17.4338 6.20683 17.3597 6.10985 17.2676 6.03194C16.4899 5.37394 15.5944 4.86942 14.6287 4.54513C14.5186 4.50797 14.4018 4.49428 14.2861 4.50492C14.1703 4.51556 14.058 4.55031 13.9565 4.60694L12.0002 5.6993L10.044 4.60624C9.94231 4.54931 9.82983 4.51433 9.71381 4.50356C9.59778 4.4928 9.48078 4.50649 9.37037 4.54374C8.40437 4.86938 7.50891 5.37531 6.73148 6.03472C6.63968 6.11254 6.56583 6.20933 6.515 6.31842C6.46417 6.42751 6.43757 6.54631 6.43704 6.66666L6.42731 8.84305L4.50023 9.94097C4.396 10.0001 4.30575 10.081 4.23565 10.1782C4.16554 10.2754 4.11722 10.3866 4.09398 10.5042C3.89779 11.4924 3.89779 12.5096 4.09398 13.4979C4.1174 13.6152 4.16581 13.7261 4.23591 13.8231C4.30601 13.92 4.39616 14.0007 4.50023 14.0597L6.43218 15.1604L6.43981 17.3347C6.44023 17.4554 6.46684 17.5745 6.5178 17.6838C6.56876 17.7932 6.64285 17.8901 6.73495 17.9681C7.51266 18.6261 8.40812 19.1306 9.37385 19.4549C9.48401 19.492 9.60072 19.5057 9.71649 19.4951C9.83227 19.4844 9.94453 19.4497 10.0461 19.3931L12.0002 18.3007L13.9544 19.3938C14.0561 19.4507 14.1686 19.4857 14.2846 19.4964C14.4006 19.5072 14.5176 19.4935 14.628 19.4563C15.594 19.1306 16.4895 18.6247 17.2669 17.9653C17.3587 17.8875 17.4326 17.7907 17.4834 17.6816C17.5342 17.5725 17.5608 17.4537 17.5614 17.3333L17.5711 15.1569L19.5023 14.059C19.6066 13.9999 19.6968 13.919 19.7669 13.8218C19.837 13.7246 19.8853 13.6134 19.9086 13.4958C20.1043 12.5075 20.1038 11.4903 19.9072 10.5021ZM18.3357 12.8063L16.469 13.8674C16.3364 13.9425 16.227 14.0528 16.153 14.1861C16.1155 14.2556 16.0759 14.3201 16.035 14.3861C15.9527 14.5175 15.9087 14.6693 15.9079 14.8243L15.8982 16.9306C15.4489 17.2686 14.9569 17.5458 14.435 17.7549L12.5495 16.7C12.4252 16.6304 12.2851 16.5938 12.1426 16.5938H12.1225C12.0433 16.5938 11.9627 16.5938 11.8836 16.5938C11.7347 16.5902 11.5875 16.6264 11.4572 16.6986L9.56968 17.7514C9.04687 17.5434 8.55374 17.2674 8.10301 16.9306L8.09537 14.8306C8.09473 14.6753 8.05071 14.5233 7.96829 14.3917C7.92801 14.3264 7.88773 14.259 7.85023 14.1917C7.77616 14.0592 7.66709 13.9497 7.53495 13.875L5.6669 12.8076C5.59433 12.2721 5.59433 11.7293 5.6669 11.1937L7.53357 10.1326C7.66597 10.0575 7.77525 9.94747 7.84954 9.81458C7.88704 9.74514 7.92662 9.67986 7.96759 9.61389C8.04989 9.48249 8.0939 9.33073 8.09468 9.17569L8.10232 7.06944C8.55173 6.73234 9.04372 6.45611 9.56551 6.24791L11.4509 7.30277C11.5812 7.37584 11.7287 7.41231 11.878 7.40833C11.9572 7.40833 12.0377 7.40833 12.1169 7.40833C12.2658 7.41185 12.413 7.37566 12.5433 7.30347L14.4308 6.24861C14.9536 6.45663 15.4467 6.73262 15.8975 7.06944L15.9051 9.16944C15.9057 9.32472 15.9498 9.47673 16.0322 9.60833C16.0725 9.67361 16.1127 9.74097 16.1502 9.80833C16.2243 9.94079 16.3334 10.0503 16.4655 10.125L18.3336 11.1896C18.4071 11.7259 18.4078 12.2697 18.3357 12.8063Z" fill="#4B4B4B"/>
</svg>
