<svg width="56" height="56" viewBox="0 0 56 56" fill="none" xmlns="http://www.w3.org/2000/svg">
<g clip-path="url(#clip0_188_30342)">
<rect width="56" height="56" rx="28" fill="#F8F5FF"/>
<rect width="56" height="56" rx="28" fill="url(#paint0_radial_188_30342)"/>
<g style="mix-blend-mode:overlay">
<rect x="-9.10547" y="-27.8555" width="34.7296" height="105.35" transform="rotate(18.2145 -9.10547 -27.8555)" fill="black"/>
</g>
<g style="mix-blend-mode:overlay">
<rect x="75.0117" y="-27.8555" width="34.7296" height="105.35" transform="rotate(18.2145 75.0117 -27.8555)" fill="black"/>
</g>
<g style="mix-blend-mode:overlay">
<rect x="31.582" y="-26.0742" width="6.09728" height="105.35" transform="rotate(18.2145 31.582 -26.0742)" fill="black"/>
</g>
<path d="M33.7777 28.5195C33.7777 28.5195 33.7914 28.9884 33.8506 29.7532" stroke="black" stroke-width="0.585257" stroke-miterlimit="10" stroke-linecap="round" stroke-linejoin="round"/>
<path d="M21.3181 29.4072C21.3546 28.8428 21.3682 28.5195 21.3682 28.5195" stroke="black" stroke-width="0.585257" stroke-miterlimit="10" stroke-linecap="round" stroke-linejoin="round"/>
<path d="M36.1098 50.0738C38.5292 51.6962 41.3575 53.6832 44.1506 56.1658L44.1548 56.164C46.3667 53.9871 50.9649 48.8503 53.3008 41.7067C55.406 35.2613 53.4346 28.5034 51.9012 24.7426C51.9012 24.7426 50.6807 21.8036 50.1296 21.8121C49.8355 21.8193 49.9337 22.7877 50.0869 23.6879C50.0869 23.6879 48.9261 21.3622 48.4713 21.3988C48.2071 21.4179 48.416 22.7599 48.6379 23.8782C48.6379 23.8782 47.2482 21.3189 46.7187 21.3429C46.3732 21.3573 46.8482 23.2043 47.216 24.478C47.216 24.478 46.0165 22.4315 45.4863 22.5697C44.9586 22.7019 46.4411 26.9451 46.266 27.1143C46.0891 27.2794 44.8766 25.5951 44.5981 25.8928C44.3214 26.1947 45.4713 28.6686 45.6692 28.8067C45.8647 28.9507 47.0047 29.4723 47.0047 29.4723C48.6798 39.8593 36.1098 50.0738 36.1098 50.0738Z" fill="white" stroke="black" stroke-width="0.518845" stroke-miterlimit="10" stroke-linecap="round" stroke-linejoin="round"/>
<path d="M50.4037 25.2255C50.4037 25.2255 50.223 24.4807 50.0859 23.6875" stroke="black" stroke-width="0.518845" stroke-miterlimit="10" stroke-linecap="round" stroke-linejoin="round"/>
<path d="M48.9681 25.3912C48.9681 25.3912 48.8013 24.69 48.6367 23.8789" stroke="black" stroke-width="0.518845" stroke-miterlimit="10" stroke-linecap="round" stroke-linejoin="round"/>
<path d="M47.5753 25.6499C47.5753 25.6499 47.4115 25.1406 47.2158 24.4766" stroke="black" stroke-width="0.518845" stroke-miterlimit="10" stroke-linecap="round" stroke-linejoin="round"/>
<path d="M17.2139 50.0372C16.9502 52.9383 16.712 56.3866 16.8809 60.1198L16.8769 60.1219C13.7929 60.4688 6.401 61.869 -0.112734 58.1196C-8.54769 53.2643 -10.452 49.9073 -12.4073 46.3475C-12.4073 46.3475 -13.9213 43.5484 -13.5675 43.1256C-13.3767 42.9017 -12.6864 43.588 -12.0837 44.274C-12.0837 44.274 -13.159 41.9076 -12.8441 41.5773C-12.6628 41.3842 -11.752 42.3916 -11.0232 43.2684C-11.0232 43.2684 -12.1357 40.5771 -11.7836 40.1808C-11.5548 39.9216 -10.4194 41.4538 -9.66178 42.5418C-9.66178 42.5418 -10.4958 40.3211 -10.0545 39.9964C-9.61938 39.6697 -7.25752 43.4939 -7.01583 43.4645C-6.7762 43.431 -7.32068 41.4284 -6.91397 41.3995C-6.50522 41.3748 -5.30804 43.8262 -5.32543 44.0668C-5.33672 44.3094 -5.64963 45.5234 -5.64963 45.5234C3.99343 57.4262 17.2139 50.0372 17.2139 50.0372Z" fill="white" stroke="black" stroke-width="0.604066" stroke-miterlimit="10" stroke-linecap="round" stroke-linejoin="round"/>
<path d="M11.7029 74.1947C11.7029 74.1947 22.0638 76.3211 27.3354 79.0525C32.6116 81.7794 47.9442 77.7501 47.9442 77.7501C49.8699 68.2903 47.6255 60.0914 44.5435 53.5405H44.539C42.9502 50.1581 41.1338 47.2173 39.5496 44.7727C38.1384 42.5921 36.9093 40.8076 36.19 39.4509C36.19 39.4509 27.8774 45.1323 20.0746 39.2461C20.0746 39.246 9.14896 57.7788 11.7029 74.1947Z" fill="url(#paint1_linear_188_30342)"/>
<path d="M28.1343 41.7384C28.1343 41.7384 27.703 45.8586 29.2405 46.1235C30.7781 46.3883 37.7942 42.084 37.7537 42.0218C37.7134 41.9597 37.513 39.3485 35.8988 39.3712C35.8988 39.3712 31.7123 41.7973 28.1343 41.7384Z" fill="white" stroke="black" stroke-width="0.518845" stroke-miterlimit="10" stroke-linecap="round" stroke-linejoin="round"/>
<path d="M28.0781 41.739C28.0781 41.739 28.5094 45.8592 26.9719 46.124C25.4343 46.3889 18.4183 42.0845 18.4586 42.0224C18.499 41.9602 18.7839 39.3211 20.398 39.3438C20.398 39.3438 24.1562 41.739 28.0781 41.739Z" fill="white" stroke="black" stroke-width="0.518845" stroke-miterlimit="10" stroke-linecap="round" stroke-linejoin="round"/>
<path d="M29.4821 50.2664C29.5283 50.638 29.4471 51.0162 29.3094 51.3644C29.1194 51.845 28.7884 52.3076 28.3002 52.4774C27.7402 52.6722 27.0748 52.4052 26.7499 51.9093C26.425 51.4133 26.4288 50.7399 26.7003 50.2128C27.2924 49.0632 29.2677 48.5455 29.4821 50.2664Z" fill="white" stroke="black" stroke-width="0.518845" stroke-miterlimit="10" stroke-linecap="round" stroke-linejoin="round"/>
<path d="M28.8882 57.8543C29.0083 58.4218 28.968 59.0496 28.6425 59.5298C28.3169 60.0099 27.661 60.2861 27.1266 60.0605C26.6424 59.856 26.3751 59.297 26.3941 58.7717C26.446 57.3401 28.4368 55.7206 28.8882 57.8543Z" fill="white" stroke="black" stroke-width="0.604066" stroke-miterlimit="10" stroke-linecap="round" stroke-linejoin="round"/>
<path d="M27.8905 41.7055C31.9173 41.7055 35.1733 39.8378 35.9131 39.3781C34.3411 36.2902 33.8209 31.9959 33.6591 30.0266C33.4844 30.0646 33.3092 30.0838 33.1358 30.0838C32.9953 30.0838 32.8554 30.0711 32.7193 30.046C32.2045 29.9482 31.6941 29.6763 31.1585 29.2151C30.5636 28.7054 30.0675 28.1054 29.6816 27.4288C29.101 27.8734 28.4053 28.107 27.6535 28.107C27.4952 28.107 27.3352 28.097 27.1734 28.0765C26.3211 27.97 25.5174 27.5364 24.9479 26.8906C24.8127 27.3227 24.5789 27.6893 24.2205 28.0403C23.7426 28.5086 23.1687 28.8478 22.6708 29.1177C22.3266 29.3 21.9323 29.4962 21.518 29.5881C21.3753 31.6235 21.0353 35.411 20.3084 39.1572C22.5926 40.8483 25.1431 41.7055 27.8905 41.7055Z" fill="white" stroke="black" stroke-width="0.518845"/>
<path d="M18.7097 22.9467C18.8462 23.7843 19.3835 24.4945 19.9069 25.1682C19.1558 25.8192 18.7415 26.716 18.9509 27.6857C19.1603 28.6599 20.0753 29.4702 21.0723 29.4384C21.1542 29.4338 21.2362 29.4293 21.3182 29.411C21.7552 29.3473 22.174 29.1425 22.5701 28.933C23.1072 28.6417 23.6353 28.3185 24.0723 27.8905C24.5093 27.4626 24.7506 27.0119 24.8417 26.4065C25.3697 27.1986 26.2529 27.7494 27.1998 27.8678C28.1467 27.9861 29.0343 27.7403 29.7445 27.103C30.1315 27.845 30.6595 28.5097 31.2969 29.056C31.7203 29.4201 32.2073 29.7343 32.7582 29.839C33.1269 29.9073 33.5002 29.8708 33.8507 29.757C34.5063 29.534 35.0754 29.0377 35.3894 28.4186C35.872 27.4626 35.8082 26.2972 35.4168 25.3048C36.0632 25.3184 36.7415 24.977 37.0602 24.4125C37.3788 23.848 37.4153 23.1515 37.2377 22.5278C37.0556 21.9087 36.6778 21.3579 36.2134 20.9027C35.7855 20.4839 35.2529 20.1242 34.6565 20.065C34.0556 20.0059 33.391 20.3154 33.1907 20.8799C33.2771 20.1015 33.1133 19.3139 32.6353 18.6902C32.1573 18.0665 31.4335 17.6386 30.655 17.5203C30.1588 17.4429 29.6353 17.4929 29.18 17.7115C28.7248 17.9254 28.3424 18.3215 28.1922 18.804C27.6004 18.0483 26.7991 17.4474 25.8659 17.2562C24.9281 17.0605 23.872 17.3382 23.2529 18.0665C22.6702 18.7494 22.5473 19.7964 22.957 20.5977C22.1876 19.8647 20.9812 19.7828 20.0435 20.279C19.1012 20.7752 18.5412 21.8997 18.7097 22.9467Z" fill="black" stroke="black" stroke-width="0.518845" stroke-miterlimit="10" stroke-linecap="round" stroke-linejoin="round"/>
<path d="M29.0742 33.0513C29.0742 33.0513 29.0558 34.8564 27.3295 34.9797C25.6032 35.1031 25.5969 32.8047 25.5969 32.8047" stroke="black" stroke-width="0.518845" stroke-miterlimit="10" stroke-linecap="round" stroke-linejoin="round"/>
<path d="M32.6739 32.0047C33.2554 31.4379 34.0342 30.9547 34.8342 31.0942C35.5062 31.2113 36.0614 31.7938 36.1788 32.4657C36.296 33.1377 35.9869 33.8572 35.4382 34.2624C34.8895 34.6676 34.1312 34.7558 33.4913 34.5198" fill="white"/>
<path d="M32.6739 32.0047C33.2554 31.4379 34.0342 30.9547 34.8342 31.0942C35.5062 31.2113 36.0614 31.7938 36.1788 32.4657C36.296 33.1377 35.9869 33.8572 35.4382 34.2624C34.8895 34.6676 34.1312 34.7558 33.4913 34.5198" stroke="black" stroke-width="0.518845" stroke-miterlimit="10" stroke-linecap="round" stroke-linejoin="round"/>
<path d="M22.002 32.5511C21.8816 31.8138 21.231 31.1964 20.4885 31.1146C20.1715 31.0797 19.8299 31.1421 19.5896 31.3518C19.2837 31.6189 19.2021 32.0624 19.212 32.4685C19.2279 33.1232 19.4502 33.7945 19.9267 34.2437C20.4032 34.6929 21.1572 34.8704 21.7405 34.5725" fill="white"/>
<path d="M22.002 32.5511C21.8816 31.8138 21.231 31.1964 20.4885 31.1146C20.1715 31.0797 19.8299 31.1421 19.5896 31.3518C19.2837 31.6189 19.2021 32.0624 19.212 32.4685C19.2279 33.1232 19.4502 33.7945 19.9267 34.2437C20.4032 34.6929 21.1572 34.8704 21.7405 34.5725" stroke="black" stroke-width="0.518845" stroke-miterlimit="10" stroke-linecap="round" stroke-linejoin="round"/>
<path d="M35.2227 25.3298C35.473 25.1056 35.8872 25.1742 36.1451 25.3897C36.4029 25.6053 36.5424 25.9271 36.673 26.2368C36.9203 26.8231 37.1722 27.465 37.0041 28.0788C36.8671 28.5791 36.4377 28.9875 35.9312 29.0991C35.4246 29.2107 34.8633 29.0208 34.5287 28.6244" stroke="black" stroke-width="0.518845" stroke-miterlimit="10" stroke-linecap="round" stroke-linejoin="round"/>
<path d="M33.49 20.52C33.8294 20.1064 33.934 19.529 33.8292 19.0044C33.7244 18.4798 33.4264 18.007 33.0474 17.6294C32.4237 17.0081 31.5247 16.6214 30.656 16.7639C29.7873 16.9065 29.0106 17.6577 28.9869 18.5377" stroke="black" stroke-width="0.518845" stroke-miterlimit="10" stroke-linecap="round" stroke-linejoin="round"/>
<path d="M23.4971 19.3645C22.8276 18.7045 21.7761 18.4634 20.8859 18.7656C19.9956 19.0679 19.3084 19.8995 19.1791 20.8307" stroke="black" stroke-width="0.518845" stroke-miterlimit="10" stroke-linecap="round" stroke-linejoin="round"/>
<path d="M16.1521 36.2427C15.6854 36.9257 11.1505 36.8765 7.82415 36.739C7.82415 36.739 6.35504 38.9205 6.12903 38.832C5.90784 38.7485 5.95211 36.7684 5.95702 36.6505C5.44112 36.621 5.01863 36.5965 4.72378 36.5768C4.46338 36.5572 4.2521 36.3606 4.22753 36.1002C4.05552 34.5279 3.52992 29.3395 4.07519 28.7941C4.71888 28.1505 15.6706 27.8704 15.9604 28.8531C16.2504 29.8358 17.0856 34.867 16.1521 36.2427Z" fill="white" stroke="black" stroke-width="0.518845" stroke-miterlimit="10" stroke-linecap="round" stroke-linejoin="round"/>
<ellipse cx="7.17914" cy="32.5336" rx="0.873473" ry="0.87348" fill="black" stroke="black" stroke-width="0.518845" stroke-miterlimit="10" stroke-linecap="round" stroke-linejoin="round"/>
<ellipse cx="10.2368" cy="32.5336" rx="0.873473" ry="0.87348" fill="black" stroke="black" stroke-width="0.518845" stroke-miterlimit="10" stroke-linecap="round" stroke-linejoin="round"/>
<ellipse cx="13.2944" cy="32.5336" rx="0.873473" ry="0.87348" fill="black" stroke="black" stroke-width="0.518845" stroke-miterlimit="10" stroke-linecap="round" stroke-linejoin="round"/>
<rect x="35.4863" y="8.48438" width="12" height="12" rx="6" fill="#F6576E"/>
<path d="M40.8848 15.8111V15.7571C40.8886 15.4048 40.9236 15.1245 40.9899 14.9162C41.0581 14.7079 41.1547 14.5393 41.2797 14.4105C41.4047 14.2817 41.5552 14.1643 41.7314 14.0582C41.845 13.9863 41.9473 13.9058 42.0382 13.8168C42.1291 13.7277 42.2011 13.6255 42.2541 13.5099C42.3071 13.3944 42.3336 13.2666 42.3336 13.1264C42.3336 12.9579 42.2939 12.812 42.2143 12.6889C42.1348 12.5658 42.0287 12.4711 41.8961 12.4048C41.7654 12.3366 41.6196 12.3026 41.4586 12.3026C41.3128 12.3026 41.1736 12.3329 41.041 12.3935C40.9084 12.4541 40.7986 12.5488 40.7115 12.6776C40.6243 12.8045 40.5742 12.9683 40.5609 13.169H39.6973C39.7105 12.8281 39.7967 12.5402 39.9558 12.3054C40.1149 12.0687 40.3251 11.8897 40.5865 11.7685C40.8497 11.6473 41.1404 11.5866 41.4586 11.5866C41.8071 11.5866 42.112 11.652 42.3734 11.7827C42.6348 11.9115 42.8374 12.0923 42.9814 12.3253C43.1272 12.5563 43.2001 12.8262 43.2001 13.1349C43.2001 13.3471 43.167 13.5384 43.1007 13.7088C43.0344 13.8774 42.9397 14.0279 42.8166 14.1605C42.6954 14.2931 42.5495 14.4105 42.3791 14.5128C42.2181 14.6132 42.0874 14.7173 41.987 14.8253C41.8886 14.9332 41.8166 15.0611 41.7711 15.2088C41.7257 15.3565 41.7011 15.5393 41.6973 15.7571V15.8111H40.8848ZM41.3137 17.5384C41.1584 17.5384 41.0249 17.4834 40.9132 17.3736C40.8014 17.2618 40.7456 17.1274 40.7456 16.9702C40.7456 16.8149 40.8014 16.6823 40.9132 16.5724C41.0249 16.4607 41.1584 16.4048 41.3137 16.4048C41.4672 16.4048 41.5997 16.4607 41.7115 16.5724C41.8251 16.6823 41.8819 16.8149 41.8819 16.9702C41.8819 17.0743 41.8554 17.17 41.8024 17.2571C41.7512 17.3423 41.6831 17.4105 41.5978 17.4616C41.5126 17.5128 41.4179 17.5384 41.3137 17.5384Z" fill="white"/>
</g>
<defs>
<radialGradient id="paint0_radial_188_30342" cx="0" cy="0" r="1" gradientUnits="userSpaceOnUse" gradientTransform="translate(45.0961 -17.15) rotate(105.46) scale(96.9584 101.712)">
<stop stop-color="#D9F0FD"/>
<stop offset="1" stop-color="white" stop-opacity="0"/>
</radialGradient>
<linearGradient id="paint1_linear_188_30342" x1="48.6592" y1="59.6228" x2="11.316" y2="59.6228" gradientUnits="userSpaceOnUse">
<stop stop-color="#B9E3EF"/>
<stop offset="1" stop-color="#9474F6"/>
</linearGradient>
<clipPath id="clip0_188_30342">
<rect width="56" height="56" rx="28" fill="white"/>
</clipPath>
</defs>
</svg>