<svg width="24" height="24" viewBox="0 0 24 24" fill="none" xmlns="http://www.w3.org/2000/svg">
<path d="M16.8532 10.6683C16.8532 11.1749 16.4065 11.6016 16.2598 12.0549C16.1132 12.5083 16.2132 13.1283 15.9265 13.5216C15.6398 13.9149 15.0265 14.0016 14.6665 14.2949C14.3065 14.5883 13.9998 15.1349 13.5332 15.2883C13.0665 15.4416 12.5398 15.1483 12.0332 15.1483C11.5265 15.1483 10.9865 15.4349 10.5332 15.2883C10.0798 15.1416 9.79315 14.5749 9.39982 14.2949C9.00648 14.0149 8.39315 13.9149 8.10648 13.5216C7.81982 13.1283 7.92648 12.5216 7.77315 12.0549C7.61982 11.5883 7.14648 11.1749 7.14648 10.6683C7.14648 10.1616 7.59315 9.73494 7.73982 9.28161C7.88648 8.82827 7.78648 8.20827 8.07315 7.81494C8.35982 7.42161 8.97315 7.33494 9.36648 7.04161C9.75982 6.74827 9.99982 6.20161 10.4998 6.04827C10.9998 5.89494 11.4932 6.18827 11.9998 6.18827C12.5065 6.18827 13.0465 5.90161 13.4998 6.04827C13.9532 6.19494 14.2398 6.76161 14.6665 7.04161C15.0932 7.32161 15.6732 7.42161 15.9598 7.81494C16.2465 8.20827 16.1398 8.81494 16.2932 9.28161C16.4465 9.74827 16.8532 10.1616 16.8532 10.6683ZM11.9998 8.66827C11.6043 8.66827 11.2176 8.78557 10.8887 9.00533C10.5598 9.2251 10.3034 9.53745 10.1521 9.90291C10.0007 10.2684 9.96108 10.6705 10.0382 11.0585C10.1154 11.4464 10.3059 11.8028 10.5856 12.0825C10.8653 12.3622 11.2217 12.5527 11.6096 12.6298C11.9976 12.707 12.3997 12.6674 12.7652 12.516C13.1306 12.3647 13.443 12.1083 13.6628 11.7794C13.8825 11.4505 13.9998 11.0638 13.9998 10.6683C13.9998 10.1378 13.7891 9.62913 13.414 9.25406C13.039 8.87899 12.5303 8.66827 11.9998 8.66827Z" stroke="#727272" stroke-width="1.5" stroke-linecap="round" stroke-linejoin="round"/>
<path d="M13.3662 15.4014L14.6662 18.0014L15.9862 16.6481L17.9995 16.6681L16.1262 12.9481V12.9414" stroke="#727272" stroke-width="1.5" stroke-linecap="round" stroke-linejoin="round"/>
<path d="M10.6333 15.4014L9.33333 18.0014L8.01333 16.6481L6 16.6681L7.87333 12.9481V12.9414" stroke="#727272" stroke-width="1.5" stroke-linecap="round" stroke-linejoin="round"/>
</svg>
