<svg width="24" height="24" viewBox="0 0 24 24" fill="none" xmlns="http://www.w3.org/2000/svg">
<path d="M17.5556 4.5H8.11114C7.4481 4.5 6.81222 4.76339 6.34338 5.23223C5.87454 5.70107 5.61115 6.33696 5.61115 7V18.6667C5.61115 18.8877 5.69894 19.0996 5.85522 19.2559C6.0115 19.4122 6.22346 19.5 6.44448 19.5H16.4445C16.6655 19.5 16.8774 19.4122 17.0337 19.2559C17.19 19.0996 17.2778 18.8877 17.2778 18.6667C17.2778 18.4457 17.19 18.2337 17.0337 18.0774C16.8774 17.9211 16.6655 17.8333 16.4445 17.8333H7.27781V17.5556C7.27781 17.3345 7.36561 17.1226 7.52189 16.9663C7.67817 16.81 7.89013 16.7222 8.11114 16.7222H17.5556C17.7766 16.7222 17.9886 16.6344 18.1448 16.4781C18.3011 16.3219 18.3889 16.1099 18.3889 15.8889V5.33333C18.3889 5.11232 18.3011 4.90036 18.1448 4.74408C17.9886 4.5878 17.7766 4.5 17.5556 4.5ZM11.4445 6.16667H14.2222V10.3333L13.3327 9.66667C13.1884 9.55848 13.013 9.5 12.8327 9.5C12.6524 9.5 12.4769 9.55848 12.3327 9.66667L11.4445 10.3333V6.16667ZM16.7222 15.0556H8.11114C7.82721 15.055 7.54531 15.1034 7.27781 15.1986V7C7.27781 6.77899 7.36561 6.56702 7.52189 6.41074C7.67817 6.25446 7.89013 6.16667 8.11114 6.16667H9.77781V12C9.77781 12.1548 9.8209 12.3065 9.90227 12.4381C9.98363 12.5698 10.1 12.6761 10.2385 12.7454C10.3769 12.8146 10.5318 12.8439 10.686 12.83C10.8401 12.8161 10.9873 12.7595 11.1111 12.6667L12.8334 11.375L14.5563 12.6667C14.6801 12.7593 14.8272 12.8157 14.9813 12.8295C15.1353 12.8433 15.2901 12.8139 15.4284 12.7448C15.5667 12.6756 15.683 12.5693 15.7644 12.4377C15.8457 12.3062 15.8888 12.1546 15.8889 12V6.16667H16.7222V15.0556Z" fill="#4B4B4B"/>
</svg>
