<svg xmlns="http://www.w3.org/2000/svg" viewBox="0 0 1000 1000.14"><defs><style>.cls-1{fill:#6da252}</style></defs><title>Asset 3</title><g id="Layer_2" data-name="Layer 2"><g id="Layer_1-2" data-name="Layer 1"><path d="M292.3,726.77a306.59,306.59,0,0,1-99.57-215.22H0C3.23,655.16,67,783.81,166.8,873Z" class="cls-1"/><path d="M499.93,0C228,0,6.8,217,0,487.29H192.78c6.7-163.86,141.65-294.63,307.15-294.63,169.78,0,307.42,137.63,307.42,307.41C807.35,614.28,745.06,714,652.61,767L743.31,937C896.44,851.54,1000,687.89,1000,500.07,1000,223.89,776.11,0,499.93,0" class="cls-1"/><path d="M631.11,778.16a307.73,307.73,0,0,1-320.3-35.72L185.27,888.74a500.46,500.46,0,0,0,536.58,59.57Z" class="cls-1"/><rect width="192.65" height="500.07" x="807.35" y="500.07" class="cls-1"/></g></g></svg>