<svg width="138" height="28" viewBox="0 0 138 28" fill="none" xmlns="http://www.w3.org/2000/svg">
<path d="M53.5859 4.95703H56.8878L59.5307 14.2323L62.0805 5.39394H64.7736L67.3735 14.2323L69.9735 4.95703H73.2753L69.0066 18.2862H66.0198L63.3984 9.28312L60.8486 18.2862H57.8619L53.5859 4.95703Z" fill="white"/>
<path d="M73.4688 11.5891C73.4688 8.19416 75.9684 4.57715 80.6025 4.57715C85.2366 4.57715 87.7362 8.19416 87.7362 11.6178C87.7362 15.0414 85.2366 18.6799 80.6025 18.6799C75.9684 18.6799 73.4688 15.0629 73.4688 11.6178V11.5963V11.5891ZM76.6489 11.6393C76.6489 13.967 78.418 15.6932 80.6025 15.6932C82.787 15.6932 84.5346 13.967 84.5346 11.6178C84.5346 9.26851 82.787 7.54238 80.6025 7.54238C78.418 7.54238 76.6489 9.26851 76.6489 11.6178V11.6393Z" fill="white"/>
<path d="M89.9297 4.95643H92.9379V6.70406C93.518 5.5151 94.6139 4.56967 96.6265 4.54102V7.7426H96.4833C94.2486 7.7426 93.1098 8.78831 93.1098 11.0946V18.2785H89.9297V4.95643Z" fill="white"/>
<path d="M98.4219 0.322266H101.602V10.0345L106.193 4.9635H110.003L104.467 10.8367L110.025 18.2855H106.386L101.602 11.6317V18.2855H98.4219V0.322266Z" fill="white"/>
<path d="M111.672 0.322266H114.852V6.53922C115.604 5.12823 117.208 4.52659 118.784 4.54808C120.847 4.54808 122.136 5.24999 122.91 6.41746C123.712 7.58493 123.955 9.16066 123.955 10.9584V18.2927H120.775V11.1017C120.775 10.0846 120.603 9.21079 120.166 8.5805C119.708 7.95021 118.978 7.53479 117.86 7.53479C116.6 7.53479 115.848 8.04332 115.411 8.70226C114.974 9.35404 114.852 10.1562 114.852 10.8367V18.2855H111.672V0.322266Z" fill="white"/>
<path d="M129.708 17.7774L124.68 4.96387H128.075L131.326 13.8237L134.528 4.96387H137.923L130.911 22.9486H127.516L129.701 17.7774H129.708Z" fill="white"/>
<path d="M0.0742188 9.31823V27.303L18.0661 18.307V0.322266L0.0742188 9.31823Z" fill="white"/>
<path d="M13.5664 9.31823V27.303L31.5583 18.307V0.322266L13.5664 9.31823Z" fill="white"/>
<path d="M27.0547 9.31823V27.303L45.0466 18.307V0.322266L27.0547 9.31823Z" fill="white"/>
</svg>
