<svg width="1200" height="1200" viewBox="0 0 1200 1200" fill="none" xmlns="http://www.w3.org/2000/svg">
<path d="M392.296 826.698C333.597 772.9 295.853 696.609 292.729 611.478H100C103.233 755.087 167.006 883.743 266.8 972.949L392.296 826.698Z" fill="#55588B"/>
<path d="M599.931 99.932C328.022 99.932 106.804 316.95 100.021 587.222H292.781C299.479 423.366 434.431 292.587 599.931 292.587C769.712 292.587 907.347 430.22 907.347 600C907.347 714.208 845.062 813.877 752.612 866.879L843.308 1036.94C996.438 951.471 1100 787.826 1100 600C1100 323.821 876.108 99.932 599.931 99.932Z" fill="#55588B"/>
<path d="M731.105 878.093C691.32 896.892 646.851 907.414 599.93 907.414C528.61 907.414 462.959 883.129 410.805 842.373L285.267 988.674C371.199 1058.33 480.691 1100.07 599.931 1100.07C679.635 1100.07 754.982 1081.41 821.849 1048.25L731.105 878.093Z" fill="#55588B"/>
<path d="M1100 600H907.347V1100.07H1100V600Z" fill="#55588B"/>
</svg>
