<?xml version="1.0" encoding="utf-8"?>
<!-- Generator: Adobe Illustrator 16.0.0, SVG Export Plug-In . SVG Version: 6.00 Build 0)  -->
<!DOCTYPE svg PUBLIC "-//W3C//DTD SVG 1.1//EN" "http://www.w3.org/Graphics/SVG/1.1/DTD/svg11.dtd">
<svg version="1.1" id="Layer_1" xmlns="http://www.w3.org/2000/svg" xmlns:xlink="http://www.w3.org/1999/xlink" x="0px" y="0px"
	 width="1400px" height="400px" viewBox="0 0 1400 400" enable-background="new 0 0 1400 400" xml:space="preserve">
<g>
	<path fill="#6DA252" d="M137.25,256.894c-14.731-13.501-24.204-32.647-24.988-54.013H63.894
		c0.812,36.041,16.816,68.329,41.861,90.717L137.25,256.894z"/>
	<path fill="#6DA252" d="M189.359,74.5c-68.24,0-123.758,54.464-125.46,122.293h48.376c1.681-41.122,35.549-73.943,77.084-73.943
		c42.609,0,77.15,34.542,77.15,77.15c0,28.662-15.631,53.676-38.833,66.978l22.762,42.681
		c38.431-21.451,64.421-62.521,64.421-109.658C314.859,130.688,258.671,74.5,189.359,74.5"/>
	<path fill="#6DA252" d="M222.28,269.792c-9.985,4.718-21.145,7.358-32.92,7.358c-17.899,0-34.375-6.095-47.464-16.323
		l-31.506,36.717c21.566,17.481,49.045,27.956,78.97,27.956c20.003,0,38.912-4.682,55.693-13.005L222.28,269.792z"/>
	<rect x="266.509" y="200" fill="#6DA252" width="48.35" height="125.5"/>
</g>
<g>
	<path fill="#404041" d="M393.526,270.249l54.733-137.635h22.309l55.205,137.635H501.48l-13.896-35.26h-56.718l-13.612,35.26
		H393.526z M437.767,215.8h42.161c-5.799-16.573-12.762-36.205-20.892-58.892C449.583,183.125,442.493,202.756,437.767,215.8z"/>
	<path fill="#404041" d="M542.128,270.249V131.385h21.175v82.052l37.718-40.175h29.115l-47.36,46.509l50.573,50.479h-28.17
		l-41.876-43.483v43.483H542.128z"/>
	<path fill="#404041" d="M688.744,272.423c-7.563,0-14.402-1.403-20.514-4.205c-6.114-2.805-11.06-6.571-14.841-11.297
		c-3.781-4.727-6.664-10.034-8.649-15.928c-1.985-5.892-2.978-12.084-2.978-18.576c0-6.807,1.055-13.296,3.166-19.473
		c2.111-6.176,5.119-11.658,9.028-16.448c3.906-4.789,8.899-8.603,14.983-11.438c6.08-2.836,12.809-4.254,20.181-4.254
		c6.429,0,12.162,1.371,17.205,4.112c5.041,2.741,9.074,6.413,12.099,11.013v-12.667h20.702v96.988h-21.079v-14.557
		c-2.9,5.042-6.888,9.091-11.958,12.146C701.017,270.896,695.233,272.423,688.744,272.423z M691.675,255.219
		c9.263,0,16.163-3.072,20.701-9.217c4.537-6.145,6.806-14.353,6.806-24.624c0-10.082-2.349-18.181-7.042-24.296
		c-4.695-6.11-11.611-9.168-20.75-9.168c-9.391,0-16.48,3.072-21.268,9.217c-4.791,6.145-7.186,14.29-7.186,24.436
		c0,9.959,2.411,18.056,7.232,24.294S682.158,255.219,691.675,255.219z"/>
	<path fill="#404041" d="M804.164,272.423c-12.163,0-21.443-3.481-27.839-10.445c-6.397-6.961-9.595-16.243-9.595-27.839v-60.877
		h20.985v60.689c0,7.122,1.78,12.446,5.342,15.975c3.56,3.532,8.615,5.294,15.172,5.294c7.562,0,13.296-2.016,17.203-6.05
		c3.906-4.032,5.862-10.021,5.862-17.961v-57.947h21.174v71.655c0,8.067,0.315,16.512,0.945,25.333h-21.741l-0.378-14.746
		c-0.757,1.766-1.796,3.53-3.12,5.293c-1.323,1.766-3.059,3.579-5.198,5.435c-2.145,1.86-4.855,3.357-8.131,4.492
		C811.568,271.856,808.007,272.423,804.164,272.423z"/>
	<path fill="#404041" d="M883.002,270.249v-63.996c0-5.86-0.128-11.532-0.378-17.016c-0.253-5.483-0.506-9.516-0.756-12.1
		l-0.379-3.876h22.216v13.708c3.338-5.167,7.876-9.153,13.611-11.959c5.733-2.802,11.5-4.206,17.299-4.206
		c11.973,0,20.953,3.592,26.941,10.776c5.986,7.185,8.98,18.622,8.98,34.315v54.354h-21.175v-55.016
		c0-9.579-1.403-16.527-4.206-20.845c-2.806-4.315-7.737-6.475-14.794-6.475c-6.114,0-12.006,2.348-17.678,7.043
		s-8.508,10.067-8.508,16.116v59.176H883.002z"/>
	<path fill="#404041" d="M1053.346,270.154h-9.075c-6.934,0-12.636-0.439-17.11-1.322c-4.476-0.882-8.446-2.554-11.91-5.011
		c-3.467-2.458-5.972-5.986-7.516-10.587c-1.545-4.6-2.315-10.524-2.315-17.771v-48.022h-19.285v-14.18h19.853v-23.632l20.513-6.144
		v29.776h26.468v14.18h-26.468v49.25c0,3.971,0.345,7.043,1.04,9.217c0.692,2.174,2.14,3.894,4.348,5.153
		c2.206,1.262,4.853,2.049,7.941,2.363c3.086,0.315,7.593,0.472,13.518,0.472V270.154z"/>
	<path fill="#404041" d="M1076.316,270.249v-96.988h20.702v96.988H1076.316z M1076.411,151.52v-18.906h20.607v18.906H1076.411z"/>
	<path fill="#404041" d="M1126.89,270.249v-63.996c0-5.86-0.128-11.532-0.378-17.016c-0.253-5.483-0.505-9.516-0.757-12.1
		l-0.378-3.876h22.216v13.708c3.339-5.167,7.877-9.153,13.612-11.959c5.732-2.802,11.499-4.206,17.299-4.206
		c11.972,0,20.952,3.592,26.94,10.776c5.986,7.185,8.98,18.622,8.98,34.315v54.354h-21.175v-55.016
		c0-9.579-1.403-16.527-4.207-20.845c-2.805-4.315-7.736-6.475-14.794-6.475c-6.114,0-12.005,2.348-17.677,7.043
		c-5.671,4.695-8.508,10.067-8.508,16.116v59.176H1126.89z"/>
	<path fill="#404041" d="M1282.298,309.385c-12.92,0-25.146-2.586-36.678-7.752l3.497-18.339
		c10.271,5.923,20.952,8.886,32.046,8.886c9.514,0,16.903-2.302,22.168-6.9c5.259-4.601,7.893-11.471,7.893-20.607v-9.169
		c-6.178,9.074-15.158,13.611-26.941,13.611c-13.801,0-25.019-4.283-33.653-12.855c-8.636-8.568-12.95-20.135-12.95-34.692
		c0-7.121,0.96-13.721,2.884-19.804c1.921-6.081,4.727-11.438,8.412-16.071c3.688-4.632,8.462-8.271,14.322-10.917
		c5.86-2.647,12.509-3.971,19.945-3.971c6.618,0,12.272,1.34,16.97,4.018c4.693,2.679,8.396,6.129,11.105,10.351v-11.911h22.215
		c-1.009,9.831-1.512,19.852-1.512,30.06v53.032c0,5.546-0.442,10.729-1.323,15.55c-0.885,4.821-2.476,9.596-4.773,14.322
		c-2.303,4.727-5.28,8.744-8.934,12.052c-3.656,3.309-8.429,5.986-14.321,8.035C1296.774,308.359,1289.984,309.385,1282.298,309.385
		z M1285.7,252.949c4.663,0,8.744-0.864,12.242-2.599c3.497-1.732,6.254-4.143,8.271-7.231c2.016-3.086,3.497-6.522,4.441-10.304
		c0.946-3.781,1.419-7.941,1.419-12.478c0-9.769-2.207-17.614-6.617-23.539c-4.413-5.922-10.714-8.885-18.905-8.885
		c-8.509,0-15.096,3.136-19.757,9.406c-4.665,6.272-6.995,14.291-6.995,24.059c0,10.02,2.188,17.787,6.569,23.301
		C1270.748,250.195,1277.192,252.949,1285.7,252.949z"/>
</g>
</svg>
