<svg width="24" height="24" viewBox="0 0 24 24" fill="none" xmlns="http://www.w3.org/2000/svg">
<path fill-rule="evenodd" clip-rule="evenodd" d="M4.5 14.25C4.5 13.6805 4.96171 13.2188 5.53125 13.2188H18.4688C19.0383 13.2188 19.5 13.6805 19.5 14.25C19.5 14.8195 19.0383 15.2812 18.4688 15.2812H5.53125C4.96171 15.2812 4.5 14.8195 4.5 14.25Z" fill="#242424"/>
<path fill-rule="evenodd" clip-rule="evenodd" d="M4.5 9.75C4.5 9.18046 4.96171 8.71875 5.53125 8.71875H18.4688C19.0383 8.71875 19.5 9.18046 19.5 9.75C19.5 10.3195 19.0383 10.7812 18.4688 10.7812H5.53125C4.96171 10.7812 4.5 10.3195 4.5 9.75Z" fill="#242424"/>
<path fill-rule="evenodd" clip-rule="evenodd" d="M8.89309 18.506C8.39985 18.2212 8.23085 17.5905 8.51562 17.0973L14.9844 5.89306C15.2691 5.39982 15.8998 5.23083 16.3931 5.5156C16.8863 5.80037 17.0553 6.43107 16.7706 6.92431L10.3018 18.1285C10.017 18.6218 9.38633 18.7908 8.89309 18.506Z" fill="#242424"/>
</svg>
